M48
; DRILL file {KiCad 7.0.6-7.0.6~ubuntu20.04.1} date Tue 18 Jul 2023 05:21:32 PM CDT
; FORMAT={-:-/ absolute / inch / decimal}
; #@! TF.CreationDate,2023-07-18T17:21:32-05:00
; #@! TF.GenerationSoftware,Kicad,Pcbnew,7.0.6-7.0.6~ubuntu20.04.1
; #@! TF.FileFunction,Plated,1,4,PTH
FMAT,2
INCH
; #@! TA.AperFunction,Plated,PTH,ViaDrill
T1C0.0157
; #@! TA.AperFunction,Plated,PTH,ComponentDrill
T2C0.0394
; #@! TA.AperFunction,Plated,PTH,ComponentDrill
T3C0.0433
; #@! TA.AperFunction,Plated,PTH,ComponentDrill
T4C0.0673
%
G90
G05
T1
X5.1811Y-3.811
X5.2362Y-4.8504
X5.2362Y-4.9173
X5.2717Y-4.5157
X5.2874Y-3.4921
X5.2874Y-3.5472
X5.311Y-4.8504
X5.311Y-4.9173
X5.3164Y-4.5768
X5.3504Y-3.4921
X5.3504Y-3.5472
X5.3583Y-4.5197
X5.3858Y-4.8504
X5.3858Y-4.9173
X5.4016Y-4.5768
X5.4488Y-2.9646
X5.4488Y-3.0197
X5.5079Y-2.9646
X5.5079Y-3.0197
X5.5827Y-3.622
X5.5827Y-3.814
X5.5827Y-3.9808
X5.5827Y-4.2126
X5.5827Y-4.4331
X5.6496Y-4.2756
X5.6511Y-4.3528
X5.7913Y-3.437
X5.7913Y-3.9331
X5.7953Y-3.815
X5.7953Y-4.2205
X5.7992Y-3.5709
X5.8071Y-4.7008
X5.8071Y-4.7559
X5.8189Y-4.4291
X5.8465Y-2.9803
X5.8465Y-3.2756
X5.8661Y-3.878
X5.8661Y-4.7008
X5.8661Y-4.7559
X5.8701Y-4.1063
X5.874Y-3.437
X5.874Y-4.2923
X5.9055Y-3.6693
X5.9252Y-4.7008
X5.9291Y-4.7559
X5.9528Y-3.437
X5.9803Y-4.4764
X5.9961Y-3.6181
X6.0079Y-3.8465
X6.0079Y-3.9409
X6.0079Y-3.9882
X6.0157Y-4.2244
X6.0157Y-4.437
X6.0787Y-3.437
X6.0945Y-4.2638
X6.1063Y-4.8307
X6.1378Y-4.5039
X6.1496Y-3.437
X6.2205Y-4.0
X6.2205Y-4.1772
X6.2795Y-4.2126
X6.3662Y-4.2815
X6.437Y-3.9764
T2
X6.9979Y-3.8171
X6.9979Y-3.9171
X6.9979Y-4.0171
X7.0979Y-3.8171
X7.0979Y-3.9171
X7.0979Y-4.0171
T3
X5.8803Y-2.7087
X5.9803Y-2.7087
T4
X4.748Y-3.7555
X4.748Y-4.1185
X4.9252Y-3.7555
X4.9252Y-4.1185
T0
M30
