%TF.GenerationSoftware,KiCad,Pcbnew,7.0.6-7.0.6~ubuntu20.04.1*%
%TF.CreationDate,2023-07-18T17:21:29-05:00*%
%TF.ProjectId,basic_microcontroller,62617369-635f-46d6-9963-726f636f6e74,rev?*%
%TF.SameCoordinates,Original*%
%TF.FileFunction,Paste,Bot*%
%TF.FilePolarity,Positive*%
%FSLAX46Y46*%
G04 Gerber Fmt 4.6, Leading zero omitted, Abs format (unit mm)*
G04 Created by KiCad (PCBNEW 7.0.6-7.0.6~ubuntu20.04.1) date 2023-07-18 17:21:29*
%MOMM*%
%LPD*%
G01*
G04 APERTURE LIST*
G04 Aperture macros list*
%AMRoundRect*
0 Rectangle with rounded corners*
0 $1 Rounding radius*
0 $2 $3 $4 $5 $6 $7 $8 $9 X,Y pos of 4 corners*
0 Add a 4 corners polygon primitive as box body*
4,1,4,$2,$3,$4,$5,$6,$7,$8,$9,$2,$3,0*
0 Add four circle primitives for the rounded corners*
1,1,$1+$1,$2,$3*
1,1,$1+$1,$4,$5*
1,1,$1+$1,$6,$7*
1,1,$1+$1,$8,$9*
0 Add four rect primitives between the rounded corners*
20,1,$1+$1,$2,$3,$4,$5,0*
20,1,$1+$1,$4,$5,$6,$7,0*
20,1,$1+$1,$6,$7,$8,$9,0*
20,1,$1+$1,$8,$9,$2,$3,0*%
G04 Aperture macros list end*
%ADD10RoundRect,0.250000X0.325000X0.450000X-0.325000X0.450000X-0.325000X-0.450000X0.325000X-0.450000X0*%
%ADD11RoundRect,0.250000X0.350000X0.450000X-0.350000X0.450000X-0.350000X-0.450000X0.350000X-0.450000X0*%
G04 APERTURE END LIST*
D10*
%TO.C,D25*%
X145525000Y-110500000D03*
X143475000Y-110500000D03*
%TD*%
%TO.C,D13*%
X156525000Y-100000000D03*
X154475000Y-100000000D03*
%TD*%
D11*
%TO.C,R21*%
X145500000Y-102000000D03*
X143500000Y-102000000D03*
%TD*%
%TO.C,R24*%
X156500000Y-107000000D03*
X154500000Y-107000000D03*
%TD*%
D10*
%TO.C,D5*%
X145525000Y-90000000D03*
X143475000Y-90000000D03*
%TD*%
D11*
%TO.C,R18*%
X161500000Y-102000000D03*
X159500000Y-102000000D03*
%TD*%
D10*
%TO.C,D17*%
X161525000Y-105000000D03*
X159475000Y-105000000D03*
%TD*%
D11*
%TO.C,R20*%
X151000000Y-102000000D03*
X149000000Y-102000000D03*
%TD*%
D10*
%TO.C,D18*%
X156525000Y-105000000D03*
X154475000Y-105000000D03*
%TD*%
D11*
%TO.C,R15*%
X151000000Y-97000000D03*
X149000000Y-97000000D03*
%TD*%
%TO.C,R16*%
X145500000Y-97000000D03*
X143500000Y-97000000D03*
%TD*%
D10*
%TO.C,D23*%
X156525000Y-110500000D03*
X154475000Y-110500000D03*
%TD*%
D11*
%TO.C,R25*%
X151000000Y-107000000D03*
X149000000Y-107000000D03*
%TD*%
D10*
%TO.C,D4*%
X151025000Y-90000000D03*
X148975000Y-90000000D03*
%TD*%
%TO.C,D26*%
X140025000Y-110500000D03*
X137975000Y-110500000D03*
%TD*%
D11*
%TO.C,R12*%
X140000000Y-92000000D03*
X138000000Y-92000000D03*
%TD*%
D10*
%TO.C,D19*%
X151025000Y-105000000D03*
X148975000Y-105000000D03*
%TD*%
D11*
%TO.C,R23*%
X161500000Y-107000000D03*
X159500000Y-107000000D03*
%TD*%
%TO.C,R11*%
X145500000Y-92000000D03*
X143500000Y-92000000D03*
%TD*%
%TO.C,R8*%
X161500000Y-92000000D03*
X159500000Y-92000000D03*
%TD*%
%TO.C,R30*%
X151000000Y-112500000D03*
X149000000Y-112500000D03*
%TD*%
%TO.C,R29*%
X156500000Y-112500000D03*
X154500000Y-112500000D03*
%TD*%
D10*
%TO.C,D14*%
X151025000Y-100000000D03*
X148975000Y-100000000D03*
%TD*%
D11*
%TO.C,R14*%
X156500000Y-97000000D03*
X154500000Y-97000000D03*
%TD*%
%TO.C,R9*%
X156500000Y-92000000D03*
X154500000Y-92000000D03*
%TD*%
D10*
%TO.C,D10*%
X145525000Y-95000000D03*
X143475000Y-95000000D03*
%TD*%
%TO.C,D16*%
X140025000Y-100000000D03*
X137975000Y-100000000D03*
%TD*%
%TO.C,D21*%
X140025000Y-105000000D03*
X137975000Y-105000000D03*
%TD*%
D11*
%TO.C,R10*%
X151000000Y-92000000D03*
X149000000Y-92000000D03*
%TD*%
%TO.C,R13*%
X161500000Y-97000000D03*
X159500000Y-97000000D03*
%TD*%
D10*
%TO.C,D7*%
X161525000Y-95000000D03*
X159475000Y-95000000D03*
%TD*%
%TO.C,D12*%
X161525000Y-100000000D03*
X159475000Y-100000000D03*
%TD*%
%TO.C,D8*%
X156525000Y-95000000D03*
X154475000Y-95000000D03*
%TD*%
%TO.C,D20*%
X145525000Y-105000000D03*
X143475000Y-105000000D03*
%TD*%
D11*
%TO.C,R32*%
X140000000Y-112500000D03*
X138000000Y-112500000D03*
%TD*%
D10*
%TO.C,D22*%
X161525000Y-110500000D03*
X159475000Y-110500000D03*
%TD*%
%TO.C,D6*%
X140025000Y-90000000D03*
X137975000Y-90000000D03*
%TD*%
%TO.C,D24*%
X151025000Y-110500000D03*
X148975000Y-110500000D03*
%TD*%
D11*
%TO.C,R17*%
X140000000Y-96900000D03*
X138000000Y-96900000D03*
%TD*%
%TO.C,R26*%
X145500000Y-107000000D03*
X143500000Y-107000000D03*
%TD*%
D10*
%TO.C,D9*%
X151025000Y-95000000D03*
X148975000Y-95000000D03*
%TD*%
%TO.C,D2*%
X161525000Y-90000000D03*
X159475000Y-90000000D03*
%TD*%
D11*
%TO.C,R22*%
X140000000Y-102000000D03*
X138000000Y-102000000D03*
%TD*%
%TO.C,R31*%
X145500000Y-112500000D03*
X143500000Y-112500000D03*
%TD*%
D10*
%TO.C,D3*%
X156525000Y-90000000D03*
X154475000Y-90000000D03*
%TD*%
%TO.C,D11*%
X140025000Y-95000000D03*
X137975000Y-95000000D03*
%TD*%
D11*
%TO.C,R28*%
X161500000Y-112500000D03*
X159500000Y-112500000D03*
%TD*%
%TO.C,R19*%
X156500000Y-102000000D03*
X154500000Y-102000000D03*
%TD*%
D10*
%TO.C,D15*%
X145525000Y-100000000D03*
X143475000Y-100000000D03*
%TD*%
D11*
%TO.C,R27*%
X140000000Y-107000000D03*
X138000000Y-107000000D03*
%TD*%
M02*
