%TF.GenerationSoftware,KiCad,Pcbnew,7.0.6-7.0.6~ubuntu20.04.1*%
%TF.CreationDate,2023-07-18T17:21:29-05:00*%
%TF.ProjectId,basic_microcontroller,62617369-635f-46d6-9963-726f636f6e74,rev?*%
%TF.SameCoordinates,Original*%
%TF.FileFunction,Soldermask,Top*%
%TF.FilePolarity,Negative*%
%FSLAX46Y46*%
G04 Gerber Fmt 4.6, Leading zero omitted, Abs format (unit mm)*
G04 Created by KiCad (PCBNEW 7.0.6-7.0.6~ubuntu20.04.1) date 2023-07-18 17:21:29*
%MOMM*%
%LPD*%
G01*
G04 APERTURE LIST*
G04 Aperture macros list*
%AMRoundRect*
0 Rectangle with rounded corners*
0 $1 Rounding radius*
0 $2 $3 $4 $5 $6 $7 $8 $9 X,Y pos of 4 corners*
0 Add a 4 corners polygon primitive as box body*
4,1,4,$2,$3,$4,$5,$6,$7,$8,$9,$2,$3,0*
0 Add four circle primitives for the rounded corners*
1,1,$1+$1,$2,$3*
1,1,$1+$1,$4,$5*
1,1,$1+$1,$6,$7*
1,1,$1+$1,$8,$9*
0 Add four rect primitives between the rounded corners*
20,1,$1+$1,$2,$3,$4,$5,0*
20,1,$1+$1,$4,$5,$6,$7,0*
20,1,$1+$1,$6,$7,$8,$9,0*
20,1,$1+$1,$8,$9,$2,$3,0*%
G04 Aperture macros list end*
%ADD10C,1.100000*%
%ADD11R,2.200000X2.200000*%
%ADD12C,2.200000*%
%ADD13RoundRect,0.237500X0.237500X-0.250000X0.237500X0.250000X-0.237500X0.250000X-0.237500X-0.250000X0*%
%ADD14RoundRect,0.237500X0.300000X0.237500X-0.300000X0.237500X-0.300000X-0.237500X0.300000X-0.237500X0*%
%ADD15RoundRect,0.237500X-0.250000X-0.237500X0.250000X-0.237500X0.250000X0.237500X-0.250000X0.237500X0*%
%ADD16RoundRect,0.250000X-0.600000X-0.600000X0.600000X-0.600000X0.600000X0.600000X-0.600000X0.600000X0*%
%ADD17C,1.700000*%
%ADD18RoundRect,0.250001X0.462499X0.624999X-0.462499X0.624999X-0.462499X-0.624999X0.462499X-0.624999X0*%
%ADD19RoundRect,0.250000X0.450000X-0.350000X0.450000X0.350000X-0.450000X0.350000X-0.450000X-0.350000X0*%
%ADD20R,1.000000X1.300000*%
%ADD21RoundRect,0.250000X-0.350000X-0.450000X0.350000X-0.450000X0.350000X0.450000X-0.350000X0.450000X0*%
%ADD22R,1.000000X0.500000*%
%ADD23RoundRect,0.250000X-0.450000X0.325000X-0.450000X-0.325000X0.450000X-0.325000X0.450000X0.325000X0*%
%ADD24RoundRect,0.237500X-0.300000X-0.237500X0.300000X-0.237500X0.300000X0.237500X-0.300000X0.237500X0*%
%ADD25C,0.800000*%
%ADD26R,1.250000X0.600000*%
%ADD27R,1.250000X0.300000*%
%ADD28C,2.000000*%
%ADD29C,2.565000*%
%ADD30R,2.000000X5.500000*%
%ADD31R,1.500000X0.550000*%
%ADD32R,0.550000X1.500000*%
%ADD33R,1.000000X5.500000*%
%ADD34R,1.600000X3.000000*%
%ADD35RoundRect,0.237500X0.237500X-0.300000X0.237500X0.300000X-0.237500X0.300000X-0.237500X-0.300000X0*%
%ADD36RoundRect,0.250000X0.350000X0.450000X-0.350000X0.450000X-0.350000X-0.450000X0.350000X-0.450000X0*%
G04 APERTURE END LIST*
D10*
%TO.C,J3*%
X151900000Y-66260000D03*
X149360000Y-66260000D03*
D11*
X151900000Y-68800000D03*
D12*
X149360000Y-68800000D03*
%TD*%
D13*
%TO.C,R3*%
X145700000Y-110312500D03*
X145700000Y-108487500D03*
%TD*%
D14*
%TO.C,C8*%
X145425000Y-89800000D03*
X143700000Y-89800000D03*
%TD*%
D15*
%TO.C,R6*%
X135087500Y-102000000D03*
X136912500Y-102000000D03*
%TD*%
%TO.C,R5*%
X135087500Y-96000000D03*
X136912500Y-96000000D03*
%TD*%
D16*
%TO.C,J2*%
X177747500Y-96955000D03*
D17*
X180287500Y-96955000D03*
X177747500Y-99495000D03*
X180287500Y-99495000D03*
X177747500Y-102035000D03*
X180287500Y-102035000D03*
%TD*%
D18*
%TO.C,F1*%
X137487500Y-92500000D03*
X134512500Y-92500000D03*
%TD*%
D19*
%TO.C,R35*%
X148500000Y-81250000D03*
X148500000Y-79250000D03*
%TD*%
D10*
%TO.C,S1*%
X126500000Y-116900000D03*
D20*
X124000000Y-115100000D03*
X124000000Y-116900000D03*
X124000000Y-118700000D03*
X132000000Y-115100000D03*
X132000000Y-116900000D03*
X132000000Y-118700000D03*
%TD*%
D21*
%TO.C,R1*%
X135000000Y-100100000D03*
X137000000Y-100100000D03*
%TD*%
%TO.C,R37*%
X153000000Y-118700000D03*
X155000000Y-118700000D03*
%TD*%
D22*
%TO.C,D27*%
X150400000Y-75700000D03*
X152500000Y-75700000D03*
X150400000Y-76500000D03*
X152500000Y-76500000D03*
%TD*%
D23*
%TO.C,D28*%
X137500000Y-83925000D03*
X137500000Y-85975000D03*
%TD*%
D21*
%TO.C,R36*%
X153000000Y-120600000D03*
X155000000Y-120600000D03*
%TD*%
D24*
%TO.C,C2*%
X162375000Y-95600000D03*
X164100000Y-95600000D03*
%TD*%
%TO.C,C3*%
X135275000Y-104000000D03*
X137000000Y-104000000D03*
%TD*%
D25*
%TO.C,J1*%
X124540000Y-96700000D03*
X124540000Y-103300000D03*
D26*
X125675000Y-96800000D03*
X125675000Y-97600000D03*
D27*
X125675000Y-98750000D03*
X125675000Y-99750000D03*
X125675000Y-100250000D03*
X125675000Y-101250000D03*
D26*
X125675000Y-102400000D03*
X125675000Y-103200000D03*
D27*
X125675000Y-101750000D03*
X125675000Y-100750000D03*
X125675000Y-99250000D03*
X125675000Y-98250000D03*
D28*
X125100000Y-95390000D03*
D29*
X120600000Y-95390000D03*
D28*
X125100000Y-104610000D03*
D29*
X120600000Y-104610000D03*
%TD*%
D19*
%TO.C,R34*%
X153600000Y-81250000D03*
X153600000Y-79250000D03*
%TD*%
D24*
%TO.C,C1*%
X162275000Y-105000000D03*
X164000000Y-105000000D03*
%TD*%
D30*
%TO.C,Y1*%
X168300000Y-95500000D03*
X168300000Y-105000000D03*
%TD*%
D19*
%TO.C,R38*%
X137500000Y-80250000D03*
X137500000Y-78250000D03*
%TD*%
D31*
%TO.C,U1*%
X144300000Y-96000000D03*
X144300000Y-96800000D03*
X144300000Y-97600000D03*
X144300000Y-98400000D03*
X144300000Y-99200000D03*
X144300000Y-100000000D03*
X144300000Y-100800000D03*
X144300000Y-101600000D03*
X144300000Y-102400000D03*
X144300000Y-103200000D03*
X144300000Y-104000000D03*
D32*
X146000000Y-105700000D03*
X146800000Y-105700000D03*
X147600000Y-105700000D03*
X148400000Y-105700000D03*
X149200000Y-105700000D03*
X150000000Y-105700000D03*
X150800000Y-105700000D03*
X151600000Y-105700000D03*
X152400000Y-105700000D03*
X153200000Y-105700000D03*
X154000000Y-105700000D03*
D31*
X155700000Y-104000000D03*
X155700000Y-103200000D03*
X155700000Y-102400000D03*
X155700000Y-101600000D03*
X155700000Y-100800000D03*
X155700000Y-100000000D03*
X155700000Y-99200000D03*
X155700000Y-98400000D03*
X155700000Y-97600000D03*
X155700000Y-96800000D03*
X155700000Y-96000000D03*
D32*
X154000000Y-94300000D03*
X153200000Y-94300000D03*
X152400000Y-94300000D03*
X151600000Y-94300000D03*
X150800000Y-94300000D03*
X150000000Y-94300000D03*
X149200000Y-94300000D03*
X148400000Y-94300000D03*
X147600000Y-94300000D03*
X146800000Y-94300000D03*
X146000000Y-94300000D03*
%TD*%
D33*
%TO.C,C6*%
X153000000Y-127000000D03*
X151000000Y-127000000D03*
X149000000Y-127000000D03*
X147000000Y-127000000D03*
D34*
X155400000Y-129250000D03*
X144600000Y-129250000D03*
%TD*%
D24*
%TO.C,C7*%
X154500000Y-91100000D03*
X156225000Y-91100000D03*
%TD*%
D19*
%TO.C,R7*%
X141000000Y-80300000D03*
X141000000Y-78300000D03*
%TD*%
D14*
%TO.C,C4*%
X149400000Y-110300000D03*
X147675000Y-110300000D03*
%TD*%
D19*
%TO.C,R33*%
X151000000Y-81250000D03*
X151000000Y-79250000D03*
%TD*%
D21*
%TO.C,R2*%
X135000000Y-98100000D03*
X137000000Y-98100000D03*
%TD*%
D23*
%TO.C,D1*%
X141000000Y-83975000D03*
X141000000Y-86025000D03*
%TD*%
D35*
%TO.C,C5*%
X158000000Y-104862500D03*
X158000000Y-103137500D03*
%TD*%
D36*
%TO.C,R4*%
X123500000Y-109500000D03*
X121500000Y-109500000D03*
%TD*%
M02*
