%TF.GenerationSoftware,KiCad,Pcbnew,7.0.6-7.0.6~ubuntu20.04.1*%
%TF.CreationDate,2023-07-18T17:21:29-05:00*%
%TF.ProjectId,basic_microcontroller,62617369-635f-46d6-9963-726f636f6e74,rev?*%
%TF.SameCoordinates,Original*%
%TF.FileFunction,Legend,Bot*%
%TF.FilePolarity,Positive*%
%FSLAX46Y46*%
G04 Gerber Fmt 4.6, Leading zero omitted, Abs format (unit mm)*
G04 Created by KiCad (PCBNEW 7.0.6-7.0.6~ubuntu20.04.1) date 2023-07-18 17:21:29*
%MOMM*%
%LPD*%
G01*
G04 APERTURE LIST*
%ADD10C,0.120000*%
G04 APERTURE END LIST*
D10*
%TO.C,D25*%
X146360000Y-111460000D02*
X143500000Y-111460000D01*
X146360000Y-109540000D02*
X146360000Y-111460000D01*
X143500000Y-109540000D02*
X146360000Y-109540000D01*
%TO.C,D13*%
X157360000Y-100960000D02*
X154500000Y-100960000D01*
X157360000Y-99040000D02*
X157360000Y-100960000D01*
X154500000Y-99040000D02*
X157360000Y-99040000D01*
%TO.C,R21*%
X144727064Y-102735000D02*
X144272936Y-102735000D01*
X144727064Y-101265000D02*
X144272936Y-101265000D01*
%TO.C,R24*%
X155727064Y-107735000D02*
X155272936Y-107735000D01*
X155727064Y-106265000D02*
X155272936Y-106265000D01*
%TO.C,D5*%
X146360000Y-90960000D02*
X143500000Y-90960000D01*
X146360000Y-89040000D02*
X146360000Y-90960000D01*
X143500000Y-89040000D02*
X146360000Y-89040000D01*
%TO.C,R18*%
X160727064Y-102735000D02*
X160272936Y-102735000D01*
X160727064Y-101265000D02*
X160272936Y-101265000D01*
%TO.C,D17*%
X162360000Y-105960000D02*
X159500000Y-105960000D01*
X162360000Y-104040000D02*
X162360000Y-105960000D01*
X159500000Y-104040000D02*
X162360000Y-104040000D01*
%TO.C,R20*%
X150227064Y-102735000D02*
X149772936Y-102735000D01*
X150227064Y-101265000D02*
X149772936Y-101265000D01*
%TO.C,D18*%
X157360000Y-105960000D02*
X154500000Y-105960000D01*
X157360000Y-104040000D02*
X157360000Y-105960000D01*
X154500000Y-104040000D02*
X157360000Y-104040000D01*
%TO.C,R15*%
X150227064Y-97735000D02*
X149772936Y-97735000D01*
X150227064Y-96265000D02*
X149772936Y-96265000D01*
%TO.C,R16*%
X144727064Y-97735000D02*
X144272936Y-97735000D01*
X144727064Y-96265000D02*
X144272936Y-96265000D01*
%TO.C,D23*%
X157360000Y-111460000D02*
X154500000Y-111460000D01*
X157360000Y-109540000D02*
X157360000Y-111460000D01*
X154500000Y-109540000D02*
X157360000Y-109540000D01*
%TO.C,R25*%
X150227064Y-107735000D02*
X149772936Y-107735000D01*
X150227064Y-106265000D02*
X149772936Y-106265000D01*
%TO.C,D4*%
X151860000Y-90960000D02*
X149000000Y-90960000D01*
X151860000Y-89040000D02*
X151860000Y-90960000D01*
X149000000Y-89040000D02*
X151860000Y-89040000D01*
%TO.C,D26*%
X140860000Y-111460000D02*
X138000000Y-111460000D01*
X140860000Y-109540000D02*
X140860000Y-111460000D01*
X138000000Y-109540000D02*
X140860000Y-109540000D01*
%TO.C,R12*%
X139227064Y-92735000D02*
X138772936Y-92735000D01*
X139227064Y-91265000D02*
X138772936Y-91265000D01*
%TO.C,D19*%
X151860000Y-105960000D02*
X149000000Y-105960000D01*
X151860000Y-104040000D02*
X151860000Y-105960000D01*
X149000000Y-104040000D02*
X151860000Y-104040000D01*
%TO.C,R23*%
X160727064Y-107735000D02*
X160272936Y-107735000D01*
X160727064Y-106265000D02*
X160272936Y-106265000D01*
%TO.C,R11*%
X144727064Y-92735000D02*
X144272936Y-92735000D01*
X144727064Y-91265000D02*
X144272936Y-91265000D01*
%TO.C,R8*%
X160727064Y-92735000D02*
X160272936Y-92735000D01*
X160727064Y-91265000D02*
X160272936Y-91265000D01*
%TO.C,R30*%
X150227064Y-113235000D02*
X149772936Y-113235000D01*
X150227064Y-111765000D02*
X149772936Y-111765000D01*
%TO.C,R29*%
X155727064Y-113235000D02*
X155272936Y-113235000D01*
X155727064Y-111765000D02*
X155272936Y-111765000D01*
%TO.C,D14*%
X151860000Y-100960000D02*
X149000000Y-100960000D01*
X151860000Y-99040000D02*
X151860000Y-100960000D01*
X149000000Y-99040000D02*
X151860000Y-99040000D01*
%TO.C,R14*%
X155727064Y-97735000D02*
X155272936Y-97735000D01*
X155727064Y-96265000D02*
X155272936Y-96265000D01*
%TO.C,R9*%
X155727064Y-92735000D02*
X155272936Y-92735000D01*
X155727064Y-91265000D02*
X155272936Y-91265000D01*
%TO.C,D10*%
X146360000Y-95960000D02*
X143500000Y-95960000D01*
X146360000Y-94040000D02*
X146360000Y-95960000D01*
X143500000Y-94040000D02*
X146360000Y-94040000D01*
%TO.C,D16*%
X140860000Y-100960000D02*
X138000000Y-100960000D01*
X140860000Y-99040000D02*
X140860000Y-100960000D01*
X138000000Y-99040000D02*
X140860000Y-99040000D01*
%TO.C,D21*%
X140860000Y-105960000D02*
X138000000Y-105960000D01*
X140860000Y-104040000D02*
X140860000Y-105960000D01*
X138000000Y-104040000D02*
X140860000Y-104040000D01*
%TO.C,R10*%
X150227064Y-92735000D02*
X149772936Y-92735000D01*
X150227064Y-91265000D02*
X149772936Y-91265000D01*
%TO.C,R13*%
X160727064Y-97735000D02*
X160272936Y-97735000D01*
X160727064Y-96265000D02*
X160272936Y-96265000D01*
%TO.C,D7*%
X162360000Y-95960000D02*
X159500000Y-95960000D01*
X162360000Y-94040000D02*
X162360000Y-95960000D01*
X159500000Y-94040000D02*
X162360000Y-94040000D01*
%TO.C,D12*%
X162360000Y-100960000D02*
X159500000Y-100960000D01*
X162360000Y-99040000D02*
X162360000Y-100960000D01*
X159500000Y-99040000D02*
X162360000Y-99040000D01*
%TO.C,D8*%
X157360000Y-95960000D02*
X154500000Y-95960000D01*
X157360000Y-94040000D02*
X157360000Y-95960000D01*
X154500000Y-94040000D02*
X157360000Y-94040000D01*
%TO.C,D20*%
X146360000Y-105960000D02*
X143500000Y-105960000D01*
X146360000Y-104040000D02*
X146360000Y-105960000D01*
X143500000Y-104040000D02*
X146360000Y-104040000D01*
%TO.C,R32*%
X139227064Y-113235000D02*
X138772936Y-113235000D01*
X139227064Y-111765000D02*
X138772936Y-111765000D01*
%TO.C,D22*%
X162360000Y-111460000D02*
X159500000Y-111460000D01*
X162360000Y-109540000D02*
X162360000Y-111460000D01*
X159500000Y-109540000D02*
X162360000Y-109540000D01*
%TO.C,D6*%
X140860000Y-90960000D02*
X138000000Y-90960000D01*
X140860000Y-89040000D02*
X140860000Y-90960000D01*
X138000000Y-89040000D02*
X140860000Y-89040000D01*
%TO.C,D24*%
X151860000Y-111460000D02*
X149000000Y-111460000D01*
X151860000Y-109540000D02*
X151860000Y-111460000D01*
X149000000Y-109540000D02*
X151860000Y-109540000D01*
%TO.C,R17*%
X139227064Y-97635000D02*
X138772936Y-97635000D01*
X139227064Y-96165000D02*
X138772936Y-96165000D01*
%TO.C,R26*%
X144727064Y-107735000D02*
X144272936Y-107735000D01*
X144727064Y-106265000D02*
X144272936Y-106265000D01*
%TO.C,D9*%
X151860000Y-95960000D02*
X149000000Y-95960000D01*
X151860000Y-94040000D02*
X151860000Y-95960000D01*
X149000000Y-94040000D02*
X151860000Y-94040000D01*
%TO.C,D2*%
X162360000Y-90960000D02*
X159500000Y-90960000D01*
X162360000Y-89040000D02*
X162360000Y-90960000D01*
X159500000Y-89040000D02*
X162360000Y-89040000D01*
%TO.C,R22*%
X139227064Y-102735000D02*
X138772936Y-102735000D01*
X139227064Y-101265000D02*
X138772936Y-101265000D01*
%TO.C,R31*%
X144727064Y-113235000D02*
X144272936Y-113235000D01*
X144727064Y-111765000D02*
X144272936Y-111765000D01*
%TO.C,D3*%
X157360000Y-90960000D02*
X154500000Y-90960000D01*
X157360000Y-89040000D02*
X157360000Y-90960000D01*
X154500000Y-89040000D02*
X157360000Y-89040000D01*
%TO.C,D11*%
X140860000Y-95960000D02*
X138000000Y-95960000D01*
X140860000Y-94040000D02*
X140860000Y-95960000D01*
X138000000Y-94040000D02*
X140860000Y-94040000D01*
%TO.C,R28*%
X160727064Y-113235000D02*
X160272936Y-113235000D01*
X160727064Y-111765000D02*
X160272936Y-111765000D01*
%TO.C,R19*%
X155727064Y-102735000D02*
X155272936Y-102735000D01*
X155727064Y-101265000D02*
X155272936Y-101265000D01*
%TO.C,D15*%
X146360000Y-100960000D02*
X143500000Y-100960000D01*
X146360000Y-99040000D02*
X146360000Y-100960000D01*
X143500000Y-99040000D02*
X146360000Y-99040000D01*
%TO.C,R27*%
X139227064Y-107735000D02*
X138772936Y-107735000D01*
X139227064Y-106265000D02*
X138772936Y-106265000D01*
%TD*%
M02*
