%TF.GenerationSoftware,KiCad,Pcbnew,7.0.6-7.0.6~ubuntu20.04.1*%
%TF.CreationDate,2023-07-18T17:21:28-05:00*%
%TF.ProjectId,basic_microcontroller,62617369-635f-46d6-9963-726f636f6e74,rev?*%
%TF.SameCoordinates,Original*%
%TF.FileFunction,Copper,L1,Top*%
%TF.FilePolarity,Positive*%
%FSLAX46Y46*%
G04 Gerber Fmt 4.6, Leading zero omitted, Abs format (unit mm)*
G04 Created by KiCad (PCBNEW 7.0.6-7.0.6~ubuntu20.04.1) date 2023-07-18 17:21:28*
%MOMM*%
%LPD*%
G01*
G04 APERTURE LIST*
G04 Aperture macros list*
%AMRoundRect*
0 Rectangle with rounded corners*
0 $1 Rounding radius*
0 $2 $3 $4 $5 $6 $7 $8 $9 X,Y pos of 4 corners*
0 Add a 4 corners polygon primitive as box body*
4,1,4,$2,$3,$4,$5,$6,$7,$8,$9,$2,$3,0*
0 Add four circle primitives for the rounded corners*
1,1,$1+$1,$2,$3*
1,1,$1+$1,$4,$5*
1,1,$1+$1,$6,$7*
1,1,$1+$1,$8,$9*
0 Add four rect primitives between the rounded corners*
20,1,$1+$1,$2,$3,$4,$5,0*
20,1,$1+$1,$4,$5,$6,$7,0*
20,1,$1+$1,$6,$7,$8,$9,0*
20,1,$1+$1,$8,$9,$2,$3,0*%
G04 Aperture macros list end*
%TA.AperFunction,ComponentPad*%
%ADD10R,2.200000X2.200000*%
%TD*%
%TA.AperFunction,ComponentPad*%
%ADD11C,2.200000*%
%TD*%
%TA.AperFunction,SMDPad,CuDef*%
%ADD12RoundRect,0.237500X0.237500X-0.250000X0.237500X0.250000X-0.237500X0.250000X-0.237500X-0.250000X0*%
%TD*%
%TA.AperFunction,SMDPad,CuDef*%
%ADD13RoundRect,0.237500X0.300000X0.237500X-0.300000X0.237500X-0.300000X-0.237500X0.300000X-0.237500X0*%
%TD*%
%TA.AperFunction,SMDPad,CuDef*%
%ADD14RoundRect,0.237500X-0.250000X-0.237500X0.250000X-0.237500X0.250000X0.237500X-0.250000X0.237500X0*%
%TD*%
%TA.AperFunction,ComponentPad*%
%ADD15RoundRect,0.250000X-0.600000X-0.600000X0.600000X-0.600000X0.600000X0.600000X-0.600000X0.600000X0*%
%TD*%
%TA.AperFunction,ComponentPad*%
%ADD16C,1.700000*%
%TD*%
%TA.AperFunction,SMDPad,CuDef*%
%ADD17RoundRect,0.250001X0.462499X0.624999X-0.462499X0.624999X-0.462499X-0.624999X0.462499X-0.624999X0*%
%TD*%
%TA.AperFunction,SMDPad,CuDef*%
%ADD18RoundRect,0.250000X0.450000X-0.350000X0.450000X0.350000X-0.450000X0.350000X-0.450000X-0.350000X0*%
%TD*%
%TA.AperFunction,SMDPad,CuDef*%
%ADD19R,1.000000X1.300000*%
%TD*%
%TA.AperFunction,SMDPad,CuDef*%
%ADD20RoundRect,0.250000X-0.350000X-0.450000X0.350000X-0.450000X0.350000X0.450000X-0.350000X0.450000X0*%
%TD*%
%TA.AperFunction,SMDPad,CuDef*%
%ADD21R,1.000000X0.500000*%
%TD*%
%TA.AperFunction,SMDPad,CuDef*%
%ADD22RoundRect,0.250000X-0.450000X0.325000X-0.450000X-0.325000X0.450000X-0.325000X0.450000X0.325000X0*%
%TD*%
%TA.AperFunction,SMDPad,CuDef*%
%ADD23RoundRect,0.237500X-0.300000X-0.237500X0.300000X-0.237500X0.300000X0.237500X-0.300000X0.237500X0*%
%TD*%
%TA.AperFunction,SMDPad,CuDef*%
%ADD24R,1.250000X0.600000*%
%TD*%
%TA.AperFunction,SMDPad,CuDef*%
%ADD25R,1.250000X0.300000*%
%TD*%
%TA.AperFunction,ComponentPad*%
%ADD26C,2.000000*%
%TD*%
%TA.AperFunction,ComponentPad*%
%ADD27C,2.565000*%
%TD*%
%TA.AperFunction,SMDPad,CuDef*%
%ADD28R,2.000000X5.500000*%
%TD*%
%TA.AperFunction,SMDPad,CuDef*%
%ADD29R,1.500000X0.550000*%
%TD*%
%TA.AperFunction,SMDPad,CuDef*%
%ADD30R,0.550000X1.500000*%
%TD*%
%TA.AperFunction,SMDPad,CuDef*%
%ADD31R,1.000000X5.500000*%
%TD*%
%TA.AperFunction,SMDPad,CuDef*%
%ADD32R,1.600000X3.000000*%
%TD*%
%TA.AperFunction,SMDPad,CuDef*%
%ADD33RoundRect,0.237500X0.237500X-0.300000X0.237500X0.300000X-0.237500X0.300000X-0.237500X-0.300000X0*%
%TD*%
%TA.AperFunction,SMDPad,CuDef*%
%ADD34RoundRect,0.250000X0.350000X0.450000X-0.350000X0.450000X-0.350000X-0.450000X0.350000X-0.450000X0*%
%TD*%
%TA.AperFunction,ViaPad*%
%ADD35C,0.800000*%
%TD*%
%TA.AperFunction,Conductor*%
%ADD36C,0.400000*%
%TD*%
%TA.AperFunction,Conductor*%
%ADD37C,0.250000*%
%TD*%
%TA.AperFunction,Conductor*%
%ADD38C,0.500000*%
%TD*%
G04 APERTURE END LIST*
D10*
%TO.P,J3,1,Pin_1*%
%TO.N,Net-(J3-Pin_1)*%
X151900000Y-68800000D03*
D11*
%TO.P,J3,2,Pin_2*%
%TO.N,GND*%
X149360000Y-68800000D03*
%TD*%
D12*
%TO.P,R3,1*%
%TO.N,+5V*%
X145700000Y-110312500D03*
%TO.P,R3,2*%
%TO.N,/RESET*%
X145700000Y-108487500D03*
%TD*%
D13*
%TO.P,C8,1*%
%TO.N,GND*%
X145425000Y-89800000D03*
%TO.P,C8,2*%
%TO.N,+5V*%
X143700000Y-89800000D03*
%TD*%
D14*
%TO.P,R6,1*%
%TO.N,Net-(J1-CC2)*%
X135087500Y-102000000D03*
%TO.P,R6,2*%
%TO.N,GND*%
X136912500Y-102000000D03*
%TD*%
%TO.P,R5,1*%
%TO.N,Net-(J1-CC1)*%
X135087500Y-96000000D03*
%TO.P,R5,2*%
%TO.N,GND*%
X136912500Y-96000000D03*
%TD*%
D15*
%TO.P,J2,1,MISO*%
%TO.N,/MISO*%
X177747500Y-96955000D03*
D16*
%TO.P,J2,2,VCC*%
%TO.N,+5V*%
X180287500Y-96955000D03*
%TO.P,J2,3,SCK*%
%TO.N,/SCK*%
X177747500Y-99495000D03*
%TO.P,J2,4,MOSI*%
%TO.N,/MOSI*%
X180287500Y-99495000D03*
%TO.P,J2,5,~{RST}*%
%TO.N,/RESET*%
X177747500Y-102035000D03*
%TO.P,J2,6,GND*%
%TO.N,GND*%
X180287500Y-102035000D03*
%TD*%
D17*
%TO.P,F1,1*%
%TO.N,+5V*%
X137487500Y-92500000D03*
%TO.P,F1,2*%
%TO.N,Net-(F1-Pad2)*%
X134512500Y-92500000D03*
%TD*%
D18*
%TO.P,R35,1*%
%TO.N,/TRI_LED_B*%
X148500000Y-81250000D03*
%TO.P,R35,2*%
%TO.N,Net-(D27-BK)*%
X148500000Y-79250000D03*
%TD*%
D19*
%TO.P,S1,1,COM_1*%
%TO.N,GND*%
X124000000Y-115100000D03*
%TO.P,S1,2,NO_1*%
%TO.N,unconnected-(S1-NO_1-Pad2)*%
X124000000Y-116900000D03*
%TO.P,S1,3,NC_1*%
%TO.N,GND*%
X124000000Y-118700000D03*
%TO.P,S1,4,COM_2*%
%TO.N,/RESET*%
X132000000Y-115100000D03*
%TO.P,S1,5,NO_2*%
%TO.N,unconnected-(S1-NO_2-Pad5)*%
X132000000Y-116900000D03*
%TO.P,S1,6,NC_2*%
%TO.N,/RESET*%
X132000000Y-118700000D03*
%TD*%
D20*
%TO.P,R1,1*%
%TO.N,Net-(J1-D+-PadA6)*%
X135000000Y-100100000D03*
%TO.P,R1,2*%
%TO.N,Net-(U1-D+)*%
X137000000Y-100100000D03*
%TD*%
%TO.P,R37,1*%
%TO.N,+5V*%
X153000000Y-118700000D03*
%TO.P,R37,2*%
%TO.N,/SCL*%
X155000000Y-118700000D03*
%TD*%
D21*
%TO.P,D27,1,A*%
%TO.N,+5V*%
X150400000Y-75700000D03*
%TO.P,D27,2,BK*%
%TO.N,Net-(D27-BK)*%
X152500000Y-75700000D03*
%TO.P,D27,3,RK*%
%TO.N,Net-(D27-RK)*%
X150400000Y-76500000D03*
%TO.P,D27,4,GK*%
%TO.N,Net-(D27-GK)*%
X152500000Y-76500000D03*
%TD*%
D22*
%TO.P,D28,1,K*%
%TO.N,Net-(D28-K)*%
X137500000Y-83925000D03*
%TO.P,D28,2,A*%
%TO.N,+5V*%
X137500000Y-85975000D03*
%TD*%
D20*
%TO.P,R36,1*%
%TO.N,+5V*%
X153000000Y-120600000D03*
%TO.P,R36,2*%
%TO.N,/SDA*%
X155000000Y-120600000D03*
%TD*%
D23*
%TO.P,C2,1*%
%TO.N,GND*%
X162375000Y-95600000D03*
%TO.P,C2,2*%
%TO.N,Net-(U1-XTAL2)*%
X164100000Y-95600000D03*
%TD*%
%TO.P,C3,1*%
%TO.N,GND*%
X135275000Y-104000000D03*
%TO.P,C3,2*%
%TO.N,Net-(U1-UCAP)*%
X137000000Y-104000000D03*
%TD*%
D24*
%TO.P,J1,A1,GND*%
%TO.N,GND*%
X125675000Y-96800000D03*
%TO.P,J1,A4,VBUS*%
%TO.N,Net-(F1-Pad2)*%
X125675000Y-97600000D03*
D25*
%TO.P,J1,A5,CC1*%
%TO.N,Net-(J1-CC1)*%
X125675000Y-98750000D03*
%TO.P,J1,A6,D+*%
%TO.N,Net-(J1-D+-PadA6)*%
X125675000Y-99750000D03*
%TO.P,J1,A7,D-*%
%TO.N,Net-(J1-D--PadA7)*%
X125675000Y-100250000D03*
%TO.P,J1,A8,SBU1*%
%TO.N,unconnected-(J1-SBU1-PadA8)*%
X125675000Y-101250000D03*
D24*
%TO.P,J1,A9,VBUS*%
%TO.N,Net-(F1-Pad2)*%
X125675000Y-102400000D03*
%TO.P,J1,A12,GND*%
%TO.N,GND*%
X125675000Y-103200000D03*
D25*
%TO.P,J1,B5,CC2*%
%TO.N,Net-(J1-CC2)*%
X125675000Y-101750000D03*
%TO.P,J1,B6,D+*%
%TO.N,Net-(J1-D+-PadA6)*%
X125675000Y-100750000D03*
%TO.P,J1,B7,D-*%
%TO.N,Net-(J1-D--PadA7)*%
X125675000Y-99250000D03*
%TO.P,J1,B8,SBU2*%
%TO.N,unconnected-(J1-SBU2-PadB8)*%
X125675000Y-98250000D03*
D26*
%TO.P,J1,MH,SHIELD*%
%TO.N,Net-(J1-SHIELD)*%
X125100000Y-95390000D03*
D27*
X120600000Y-95390000D03*
D26*
X125100000Y-104610000D03*
D27*
X120600000Y-104610000D03*
%TD*%
D18*
%TO.P,R34,1*%
%TO.N,/TRI_LED_G*%
X153600000Y-81250000D03*
%TO.P,R34,2*%
%TO.N,Net-(D27-GK)*%
X153600000Y-79250000D03*
%TD*%
D23*
%TO.P,C1,1*%
%TO.N,GND*%
X162275000Y-105000000D03*
%TO.P,C1,2*%
%TO.N,Net-(U1-XTAL1)*%
X164000000Y-105000000D03*
%TD*%
D28*
%TO.P,Y1,1,1*%
%TO.N,Net-(U1-XTAL2)*%
X168300000Y-95500000D03*
%TO.P,Y1,2,2*%
%TO.N,Net-(U1-XTAL1)*%
X168300000Y-105000000D03*
%TD*%
D18*
%TO.P,R38,1*%
%TO.N,Net-(D28-K)*%
X137500000Y-80250000D03*
%TO.P,R38,2*%
%TO.N,GND*%
X137500000Y-78250000D03*
%TD*%
D29*
%TO.P,U1,1,PE6*%
%TO.N,Net-(D1-A)*%
X144300000Y-96000000D03*
%TO.P,U1,2,UVCC*%
%TO.N,+5V*%
X144300000Y-96800000D03*
%TO.P,U1,3,D-*%
%TO.N,Net-(U1-D-)*%
X144300000Y-97600000D03*
%TO.P,U1,4,D+*%
%TO.N,Net-(U1-D+)*%
X144300000Y-98400000D03*
%TO.P,U1,5,UGND*%
%TO.N,GND*%
X144300000Y-99200000D03*
%TO.P,U1,6,UCAP*%
%TO.N,Net-(U1-UCAP)*%
X144300000Y-100000000D03*
%TO.P,U1,7,VBUS*%
%TO.N,+5V*%
X144300000Y-100800000D03*
%TO.P,U1,8,SS/PB0*%
%TO.N,/SS*%
X144300000Y-101600000D03*
%TO.P,U1,9,SCL/PB1*%
%TO.N,/SCK*%
X144300000Y-102400000D03*
%TO.P,U1,10,MOSI/PB2*%
%TO.N,/MOSI*%
X144300000Y-103200000D03*
%TO.P,U1,11,MSIO/PB3*%
%TO.N,/MISO*%
X144300000Y-104000000D03*
D30*
%TO.P,U1,12,PWM/PB7*%
%TO.N,/TRI_LED_B*%
X146000000Y-105700000D03*
%TO.P,U1,13,~{RESET}*%
%TO.N,/RESET*%
X146800000Y-105700000D03*
%TO.P,U1,14,VCC*%
%TO.N,+5V*%
X147600000Y-105700000D03*
%TO.P,U1,15,GND*%
%TO.N,GND*%
X148400000Y-105700000D03*
%TO.P,U1,16,XTAL2*%
%TO.N,Net-(U1-XTAL2)*%
X149200000Y-105700000D03*
%TO.P,U1,17,XTAL1*%
%TO.N,Net-(U1-XTAL1)*%
X150000000Y-105700000D03*
%TO.P,U1,18,SCL/PD0*%
%TO.N,/SCL*%
X150800000Y-105700000D03*
%TO.P,U1,19,SDA/PD1*%
%TO.N,/SDA*%
X151600000Y-105700000D03*
%TO.P,U1,20,RX1/PD2*%
%TO.N,/LED_COL1*%
X152400000Y-105700000D03*
%TO.P,U1,21,TX1/PD3*%
%TO.N,/LED_COL2*%
X153200000Y-105700000D03*
%TO.P,U1,22,XCK/PD5*%
%TO.N,/LED_COL4*%
X154000000Y-105700000D03*
D29*
%TO.P,U1,23,GND*%
%TO.N,GND*%
X155700000Y-104000000D03*
%TO.P,U1,24,AVCC*%
%TO.N,+5V*%
X155700000Y-103200000D03*
%TO.P,U1,25,ADC8/PD4*%
%TO.N,/LED_COL3*%
X155700000Y-102400000D03*
%TO.P,U1,26,ADC9/PWM/PD6*%
%TO.N,/LED_COL5*%
X155700000Y-101600000D03*
%TO.P,U1,27,ADC10/PWM/PD7*%
%TO.N,unconnected-(U1-ADC10{slash}PWM{slash}PD7-Pad27)*%
X155700000Y-100800000D03*
%TO.P,U1,28,ADC11/PB4*%
%TO.N,unconnected-(U1-ADC11{slash}PB4-Pad28)*%
X155700000Y-100000000D03*
%TO.P,U1,29,ADC12/PWM/PB5*%
%TO.N,/TRI_LED_R*%
X155700000Y-99200000D03*
%TO.P,U1,30,ADC13/PWM/PB6*%
%TO.N,/TRI_LED_G*%
X155700000Y-98400000D03*
%TO.P,U1,31,PC6*%
%TO.N,unconnected-(U1-PC6-Pad31)*%
X155700000Y-97600000D03*
%TO.P,U1,32,PC7*%
%TO.N,unconnected-(U1-PC7-Pad32)*%
X155700000Y-96800000D03*
%TO.P,U1,33,~{HWB}/PE2*%
%TO.N,GND*%
X155700000Y-96000000D03*
D30*
%TO.P,U1,34,VCC*%
%TO.N,+5V*%
X154000000Y-94300000D03*
%TO.P,U1,35,GND*%
%TO.N,GND*%
X153200000Y-94300000D03*
%TO.P,U1,36,ADC7/PF7*%
%TO.N,/LED_ROW5*%
X152400000Y-94300000D03*
%TO.P,U1,37,ADC6/PF6*%
%TO.N,/LED_ROW4*%
X151600000Y-94300000D03*
%TO.P,U1,38,ADC5/PF5*%
%TO.N,/LED_ROW3*%
X150800000Y-94300000D03*
%TO.P,U1,39,ADC4/PF4*%
%TO.N,/LED_ROW2*%
X150000000Y-94300000D03*
%TO.P,U1,40,ADC1/PF1*%
%TO.N,/LED_ROW1*%
X149200000Y-94300000D03*
%TO.P,U1,41,ADC0/PF0*%
%TO.N,Net-(J3-Pin_1)*%
X148400000Y-94300000D03*
%TO.P,U1,42,AREF*%
%TO.N,/AREF*%
X147600000Y-94300000D03*
%TO.P,U1,43,GND*%
%TO.N,GND*%
X146800000Y-94300000D03*
%TO.P,U1,44,AVCC*%
%TO.N,+5V*%
X146000000Y-94300000D03*
%TD*%
D31*
%TO.P,C6,1,1*%
%TO.N,/SCL*%
X153000000Y-127000000D03*
%TO.P,C6,2,2*%
%TO.N,/SDA*%
X151000000Y-127000000D03*
%TO.P,C6,3,3*%
%TO.N,+5V*%
X149000000Y-127000000D03*
%TO.P,C6,4,4*%
%TO.N,GND*%
X147000000Y-127000000D03*
D32*
%TO.P,C6,MP1,MP1*%
X155400000Y-129250000D03*
%TO.P,C6,MP2,MP2*%
X144600000Y-129250000D03*
%TD*%
D23*
%TO.P,C7,1*%
%TO.N,GND*%
X154500000Y-91100000D03*
%TO.P,C7,2*%
%TO.N,+5V*%
X156225000Y-91100000D03*
%TD*%
D18*
%TO.P,R7,1*%
%TO.N,Net-(D1-K)*%
X141000000Y-80300000D03*
%TO.P,R7,2*%
%TO.N,GND*%
X141000000Y-78300000D03*
%TD*%
D13*
%TO.P,C4,1*%
%TO.N,GND*%
X149400000Y-110300000D03*
%TO.P,C4,2*%
%TO.N,+5V*%
X147675000Y-110300000D03*
%TD*%
D18*
%TO.P,R33,1*%
%TO.N,/TRI_LED_R*%
X151000000Y-81250000D03*
%TO.P,R33,2*%
%TO.N,Net-(D27-RK)*%
X151000000Y-79250000D03*
%TD*%
D20*
%TO.P,R2,1*%
%TO.N,Net-(J1-D--PadA7)*%
X135000000Y-98100000D03*
%TO.P,R2,2*%
%TO.N,Net-(U1-D-)*%
X137000000Y-98100000D03*
%TD*%
D22*
%TO.P,D1,1,K*%
%TO.N,Net-(D1-K)*%
X141000000Y-83975000D03*
%TO.P,D1,2,A*%
%TO.N,Net-(D1-A)*%
X141000000Y-86025000D03*
%TD*%
D33*
%TO.P,C5,1*%
%TO.N,GND*%
X158000000Y-104862500D03*
%TO.P,C5,2*%
%TO.N,+5V*%
X158000000Y-103137500D03*
%TD*%
D34*
%TO.P,R4,1*%
%TO.N,GND*%
X123500000Y-109500000D03*
%TO.P,R4,2*%
%TO.N,Net-(J1-SHIELD)*%
X121500000Y-109500000D03*
%TD*%
D35*
%TO.N,+5V*%
X156200000Y-87300000D03*
%TO.N,GND*%
X138400000Y-75300000D03*
X131600000Y-96800000D03*
X136800000Y-123200000D03*
X133000000Y-124900000D03*
X134900000Y-123200000D03*
X136800000Y-124900000D03*
X139900000Y-75300000D03*
X133000000Y-123200000D03*
X158000000Y-106100000D03*
X134900000Y-124900000D03*
X154400000Y-87300000D03*
X138400000Y-76700000D03*
X139900000Y-76700000D03*
%TO.N,Net-(U1-XTAL1)*%
X161700500Y-108749500D03*
X151900000Y-113700000D03*
%TO.N,Net-(U1-XTAL2)*%
X163500000Y-101000000D03*
X149200000Y-109024500D03*
%TO.N,+5V*%
X135900000Y-88700000D03*
X150600000Y-120800000D03*
X134300000Y-90100000D03*
X147500000Y-120800000D03*
X134300000Y-88700000D03*
X149000000Y-119400000D03*
X150500000Y-119400000D03*
X135900000Y-90100000D03*
X148500000Y-75700000D03*
X147500000Y-119400000D03*
X149000000Y-120800000D03*
%TO.N,/MISO*%
X136100000Y-114800000D03*
%TO.N,/SCK*%
X133900000Y-114700000D03*
%TO.N,/MOSI*%
X135037590Y-116249500D03*
%TO.N,/RESET*%
X137200000Y-116249500D03*
%TO.N,/LED_ROW1*%
X149200000Y-87300000D03*
%TO.N,/LED_ROW2*%
X150000000Y-93200000D03*
%TO.N,/LED_ROW3*%
X149000000Y-98500000D03*
%TO.N,/LED_ROW4*%
X149100000Y-104300000D03*
X152600000Y-100100000D03*
%TO.N,/LED_ROW5*%
X143537147Y-110562147D03*
X151200000Y-87300000D03*
%TO.N,/LED_COL1*%
X159500000Y-107000000D03*
%TO.N,/LED_COL2*%
X152800000Y-107300000D03*
X152300000Y-91900000D03*
X152600000Y-101300000D03*
X152800000Y-112700000D03*
X152600000Y-97700000D03*
%TO.N,/LED_COL3*%
X147100000Y-99900000D03*
X147200000Y-96900000D03*
X147200000Y-107200000D03*
X147300000Y-90700000D03*
X147800000Y-112500000D03*
%TO.N,/LED_COL4*%
X141800000Y-96875500D03*
X141800000Y-107000000D03*
X154800000Y-108300000D03*
X141800000Y-92000000D03*
X141800000Y-101112299D03*
X141800000Y-112600000D03*
%TO.N,/LED_COL5*%
X158000000Y-101600000D03*
%TO.N,/TRI_LED_B*%
X143500000Y-108600000D03*
X148500000Y-83200000D03*
%TO.N,Net-(J3-Pin_1)*%
X147100000Y-87300000D03*
%TO.N,/SDA*%
X155100000Y-122700000D03*
X155900000Y-114400000D03*
%TD*%
D36*
%TO.N,Net-(U1-XTAL2)*%
X168300000Y-95500000D02*
X164200000Y-95500000D01*
D37*
%TO.N,+5V*%
X156225000Y-91100000D02*
X156200000Y-91075000D01*
X156200000Y-91075000D02*
X156200000Y-87300000D01*
%TO.N,GND*%
X154400000Y-87300000D02*
X154400000Y-91000000D01*
X154400000Y-91000000D02*
X154500000Y-91100000D01*
%TO.N,/TRI_LED_G*%
X155700000Y-98400000D02*
X156700000Y-98400000D01*
X156700000Y-98400000D02*
X157500000Y-97600000D01*
X157500000Y-97600000D02*
X157500000Y-83100000D01*
X157500000Y-83100000D02*
X155650000Y-81250000D01*
X155650000Y-81250000D02*
X153600000Y-81250000D01*
%TO.N,/TRI_LED_R*%
X155700000Y-99200000D02*
X156700000Y-99200000D01*
X156700000Y-99200000D02*
X157950000Y-97950000D01*
X157950000Y-97950000D02*
X157950000Y-82850000D01*
X157950000Y-82850000D02*
X155300000Y-80200000D01*
X155300000Y-80200000D02*
X152050000Y-80200000D01*
X152050000Y-80200000D02*
X151000000Y-81250000D01*
D38*
%TO.N,+5V*%
X144300000Y-96800000D02*
X143200000Y-96800000D01*
X143200000Y-96800000D02*
X138900000Y-92500000D01*
X138900000Y-92500000D02*
X137487500Y-92500000D01*
D37*
%TO.N,Net-(U1-D+)*%
X137000000Y-100100000D02*
X138700000Y-98400000D01*
X138700000Y-98400000D02*
X144300000Y-98400000D01*
%TO.N,Net-(U1-D-)*%
X137000000Y-98100000D02*
X138000000Y-98100000D01*
X138000000Y-98100000D02*
X138500000Y-97600000D01*
X138500000Y-97600000D02*
X144300000Y-97600000D01*
%TO.N,Net-(J1-D+-PadA6)*%
X135000000Y-100100000D02*
X134700000Y-99800000D01*
X134700000Y-99800000D02*
X129300000Y-99800000D01*
X129300000Y-99800000D02*
X128350000Y-100750000D01*
X128350000Y-100750000D02*
X125675000Y-100750000D01*
%TO.N,Net-(J1-D--PadA7)*%
X125675000Y-100250000D02*
X128050000Y-100250000D01*
X128050000Y-100250000D02*
X129050000Y-99250000D01*
X129050000Y-99250000D02*
X129100000Y-99250000D01*
X125675000Y-99250000D02*
X127300000Y-99250000D01*
X127300000Y-99250000D02*
X133850000Y-99250000D01*
X133850000Y-99250000D02*
X135000000Y-98100000D01*
D36*
%TO.N,Net-(U1-XTAL1)*%
X151900000Y-113700000D02*
X150350000Y-112150000D01*
X150350000Y-112150000D02*
X150350000Y-109050000D01*
X150350000Y-109050000D02*
X150000000Y-108700000D01*
X150000000Y-108700000D02*
X150000000Y-105700000D01*
D37*
%TO.N,/RESET*%
X137200000Y-115874695D02*
X143749695Y-109325000D01*
X144862500Y-109325000D02*
X145700000Y-108487500D01*
X143749695Y-109325000D02*
X144862500Y-109325000D01*
X137200000Y-116249500D02*
X137200000Y-115874695D01*
D36*
%TO.N,+5V*%
X147662500Y-110312500D02*
X147675000Y-110300000D01*
D37*
%TO.N,/RESET*%
X145700000Y-108487500D02*
X145700000Y-107675000D01*
X145700000Y-107675000D02*
X146800000Y-106575000D01*
X146800000Y-106575000D02*
X146800000Y-105700000D01*
%TO.N,+5V*%
X154000000Y-94300000D02*
X156225000Y-92075000D01*
X156225000Y-92075000D02*
X156225000Y-91100000D01*
%TO.N,GND*%
X153200000Y-94300000D02*
X153200000Y-93500000D01*
X153200000Y-93500000D02*
X154500000Y-92200000D01*
X154500000Y-92200000D02*
X154500000Y-91100000D01*
X145425000Y-89800000D02*
X145425000Y-79525000D01*
X145425000Y-79525000D02*
X142400000Y-76500000D01*
X142400000Y-76500000D02*
X142000000Y-76500000D01*
X146800000Y-94300000D02*
X146800000Y-92500000D01*
X146800000Y-92500000D02*
X145425000Y-91125000D01*
X145425000Y-91125000D02*
X145425000Y-89800000D01*
%TO.N,+5V*%
X146000000Y-94300000D02*
X146000000Y-93200000D01*
X146000000Y-93200000D02*
X143700000Y-90900000D01*
X143700000Y-90900000D02*
X143700000Y-89800000D01*
%TO.N,Net-(D1-A)*%
X144300000Y-96000000D02*
X144300000Y-92600000D01*
X144300000Y-92600000D02*
X141000000Y-89300000D01*
X141000000Y-89300000D02*
X141000000Y-86025000D01*
%TO.N,Net-(D1-K)*%
X141000000Y-83975000D02*
X141000000Y-80300000D01*
D38*
%TO.N,GND*%
X138700000Y-102000000D02*
X141500000Y-99200000D01*
X137000000Y-102000000D02*
X138700000Y-102000000D01*
X125675000Y-103200000D02*
X127400000Y-103200000D01*
D37*
X162275000Y-95700000D02*
X162375000Y-95600000D01*
X134000000Y-94400000D02*
X135400000Y-94400000D01*
X146600000Y-99200000D02*
X148000000Y-97800000D01*
X162275000Y-105000000D02*
X158137500Y-105000000D01*
X154900000Y-104000000D02*
X155700000Y-104000000D01*
D38*
X125675000Y-96800000D02*
X131600000Y-96800000D01*
D37*
X154400000Y-103500000D02*
X154900000Y-104000000D01*
X148400000Y-109300000D02*
X149400000Y-110300000D01*
X158137500Y-105000000D02*
X158000000Y-104862500D01*
X131600000Y-96800000D02*
X134000000Y-94400000D01*
X148000000Y-96400000D02*
X147550000Y-95950000D01*
X155700000Y-96000000D02*
X153900000Y-96000000D01*
X153200000Y-95300000D02*
X153200000Y-94300000D01*
X147550000Y-95950000D02*
X146800000Y-95200000D01*
X146800000Y-95200000D02*
X146800000Y-94300000D01*
X146050000Y-130700000D02*
X148300000Y-130700000D01*
X144600000Y-129250000D02*
X146050000Y-130700000D01*
D38*
X141500000Y-99200000D02*
X144300000Y-99200000D01*
D37*
X147000000Y-127000000D02*
X147000000Y-129400000D01*
X148375000Y-105675000D02*
X148375000Y-103825000D01*
X148700000Y-103500000D02*
X154400000Y-103500000D01*
X144300000Y-99200000D02*
X146600000Y-99200000D01*
X148375000Y-103825000D02*
X148700000Y-103500000D01*
X153900000Y-96000000D02*
X153200000Y-95300000D01*
D38*
X135275000Y-104000000D02*
X137000000Y-102275000D01*
D37*
X148400000Y-105700000D02*
X148375000Y-105675000D01*
X147000000Y-129400000D02*
X148300000Y-130700000D01*
X153950000Y-130700000D02*
X155400000Y-129250000D01*
D38*
X137000000Y-102275000D02*
X137000000Y-102000000D01*
D37*
X158000000Y-106100000D02*
X158000000Y-105362500D01*
X155700000Y-104000000D02*
X156562500Y-104862500D01*
X148400000Y-105700000D02*
X148400000Y-109300000D01*
D38*
X127400000Y-103200000D02*
X128000000Y-103800000D01*
D37*
X135400000Y-94400000D02*
X137000000Y-96000000D01*
X162275000Y-105000000D02*
X162275000Y-95700000D01*
X156562500Y-104862500D02*
X158000000Y-104862500D01*
X148300000Y-130700000D02*
X153950000Y-130700000D01*
X148000000Y-97800000D02*
X148000000Y-96400000D01*
D36*
%TO.N,Net-(U1-XTAL1)*%
X164000000Y-106450000D02*
X161700500Y-108749500D01*
X168300000Y-105000000D02*
X164000000Y-105000000D01*
X164000000Y-105000000D02*
X164000000Y-106450000D01*
%TO.N,Net-(U1-XTAL2)*%
X149200000Y-105700000D02*
X149200000Y-109024500D01*
X164100000Y-100400000D02*
X163500000Y-101000000D01*
X164200000Y-95500000D02*
X164100000Y-95600000D01*
X164100000Y-95600000D02*
X164100000Y-100400000D01*
D37*
%TO.N,Net-(U1-UCAP)*%
X137800000Y-104000000D02*
X141800000Y-100000000D01*
X137000000Y-104000000D02*
X137800000Y-104000000D01*
X141800000Y-100000000D02*
X144300000Y-100000000D01*
D38*
%TO.N,+5V*%
X145550000Y-96800000D02*
X146000000Y-96350000D01*
D36*
X147600000Y-104600000D02*
X147600000Y-105700000D01*
X145500000Y-100800000D02*
X146300000Y-101600000D01*
D37*
X147600000Y-105700000D02*
X147600000Y-106574695D01*
X147925000Y-106899695D02*
X147925000Y-110050000D01*
D36*
X147100000Y-104100000D02*
X147600000Y-104600000D01*
X154842462Y-103200000D02*
X154617462Y-102975000D01*
D37*
X155762500Y-103137500D02*
X155700000Y-103200000D01*
X147925000Y-110050000D02*
X147675000Y-110300000D01*
D36*
X144300000Y-100800000D02*
X145500000Y-100800000D01*
D37*
X147600000Y-106574695D02*
X147925000Y-106899695D01*
X149000000Y-127000000D02*
X149000000Y-123100000D01*
D38*
X146000000Y-96350000D02*
X146000000Y-94300000D01*
X137487500Y-91487500D02*
X137487500Y-92500000D01*
D36*
X155700000Y-103200000D02*
X154842462Y-103200000D01*
D37*
X137500000Y-85975000D02*
X137500000Y-88250000D01*
X148500000Y-75700000D02*
X150400000Y-75700000D01*
D36*
X154617462Y-102975000D02*
X147300000Y-102975000D01*
D37*
X158000000Y-103137500D02*
X155762500Y-103137500D01*
D38*
X144300000Y-96800000D02*
X145550000Y-96800000D01*
D37*
%TO.N,/MISO*%
X144300000Y-104000000D02*
X143300000Y-104000000D01*
X143300000Y-104000000D02*
X136100000Y-111200000D01*
X136100000Y-111200000D02*
X136100000Y-114800000D01*
%TO.N,/SCK*%
X133900000Y-111800000D02*
X143300000Y-102400000D01*
X143300000Y-102400000D02*
X144300000Y-102400000D01*
X133900000Y-114700000D02*
X133900000Y-111800000D01*
%TO.N,/MOSI*%
X135000000Y-116211910D02*
X135000000Y-111500000D01*
X135037590Y-116249500D02*
X135000000Y-116211910D01*
X135000000Y-111500000D02*
X143300000Y-103200000D01*
X143300000Y-103200000D02*
X144300000Y-103200000D01*
%TO.N,/RESET*%
X131175000Y-115925000D02*
X132000000Y-115100000D01*
X132000000Y-118700000D02*
X131175000Y-117875000D01*
X134749500Y-118700000D02*
X132000000Y-118700000D01*
X131175000Y-117875000D02*
X131175000Y-115925000D01*
X137200000Y-116249500D02*
X134749500Y-118700000D01*
%TO.N,Net-(J1-D+-PadA6)*%
X124500000Y-100000000D02*
X124750000Y-99750000D01*
X124750000Y-100750000D02*
X124500000Y-100500000D01*
X124750000Y-99750000D02*
X125675000Y-99750000D01*
X124500000Y-100500000D02*
X124500000Y-100000000D01*
X125675000Y-100750000D02*
X124750000Y-100750000D01*
%TO.N,Net-(J1-SHIELD)*%
X121500000Y-109500000D02*
X120600000Y-108600000D01*
X120600000Y-108600000D02*
X120600000Y-104610000D01*
%TO.N,Net-(J1-CC1)*%
X135000000Y-96000000D02*
X132250000Y-98750000D01*
X132250000Y-98750000D02*
X125675000Y-98750000D01*
%TO.N,Net-(J1-CC2)*%
X135000000Y-102000000D02*
X134750000Y-101750000D01*
X134750000Y-101750000D02*
X125675000Y-101750000D01*
%TO.N,/LED_ROW1*%
X149200000Y-94300000D02*
X149200000Y-87200000D01*
%TO.N,/LED_ROW2*%
X150000000Y-94300000D02*
X150000000Y-93200000D01*
%TO.N,/LED_ROW3*%
X149000000Y-98500000D02*
X150800000Y-96700000D01*
X150800000Y-96700000D02*
X150800000Y-94300000D01*
%TO.N,/LED_ROW4*%
X152400000Y-100100000D02*
X151600000Y-99300000D01*
X151600000Y-99300000D02*
X151600000Y-94300000D01*
%TO.N,/LED_ROW5*%
X151200000Y-87300000D02*
X151100000Y-87400000D01*
X152400000Y-93500000D02*
X152400000Y-94300000D01*
X151100000Y-92200000D02*
X152400000Y-93500000D01*
X151100000Y-87400000D02*
X151100000Y-92200000D01*
D38*
%TO.N,Net-(F1-Pad2)*%
X123200000Y-98300000D02*
X123200000Y-100100000D01*
X123900000Y-97600000D02*
X123200000Y-98300000D01*
X134512500Y-92500000D02*
X123600000Y-92500000D01*
X122400000Y-93700000D02*
X122400000Y-99300000D01*
X125675000Y-97600000D02*
X123900000Y-97600000D01*
X123200000Y-100100000D02*
X123200000Y-102000000D01*
X123200000Y-102000000D02*
X123600000Y-102400000D01*
X123600000Y-102400000D02*
X125675000Y-102400000D01*
X122400000Y-99300000D02*
X123200000Y-100100000D01*
X123600000Y-92500000D02*
X122400000Y-93700000D01*
D37*
%TO.N,/LED_COL1*%
X154400000Y-104400000D02*
X157100000Y-107100000D01*
X157100000Y-107100000D02*
X159400000Y-107100000D01*
X152400000Y-104825000D02*
X152825000Y-104400000D01*
X152400000Y-105700000D02*
X152400000Y-104825000D01*
X152825000Y-104400000D02*
X154400000Y-104400000D01*
%TO.N,/LED_COL2*%
X153200000Y-106900000D02*
X152800000Y-107300000D01*
X153200000Y-105700000D02*
X153200000Y-106900000D01*
%TO.N,/LED_COL3*%
X152600000Y-102400000D02*
X155700000Y-102400000D01*
X150100000Y-99900000D02*
X152600000Y-102400000D01*
X147100000Y-99900000D02*
X150100000Y-99900000D01*
%TO.N,/LED_COL4*%
X154000000Y-107500000D02*
X154800000Y-108300000D01*
X154000000Y-105700000D02*
X154000000Y-107500000D01*
%TO.N,/LED_COL5*%
X155700000Y-101600000D02*
X158000000Y-101600000D01*
%TO.N,Net-(D27-RK)*%
X150400000Y-77200000D02*
X150400000Y-76500000D01*
X151000000Y-79250000D02*
X151000000Y-77800000D01*
X151000000Y-77800000D02*
X150400000Y-77200000D01*
%TO.N,Net-(D27-GK)*%
X153750000Y-79250000D02*
X153500000Y-79000000D01*
X153500000Y-79000000D02*
X153500000Y-77500000D01*
X153500000Y-77500000D02*
X152500000Y-76500000D01*
%TO.N,/TRI_LED_B*%
X143500000Y-108200000D02*
X146000000Y-105700000D01*
X143500000Y-108600000D02*
X143500000Y-108200000D01*
X148500000Y-83300000D02*
X148500000Y-81250000D01*
%TO.N,Net-(D27-BK)*%
X146700000Y-77450000D02*
X146700000Y-74300000D01*
X148000000Y-73000000D02*
X149800000Y-73000000D01*
X148500000Y-79250000D02*
X146700000Y-77450000D01*
X146700000Y-74300000D02*
X148000000Y-73000000D01*
X149800000Y-73000000D02*
X152500000Y-75700000D01*
%TO.N,Net-(D28-K)*%
X137500000Y-83950000D02*
X137500000Y-80450000D01*
%TO.N,/SCL*%
X156400000Y-123600000D02*
X156400000Y-120100000D01*
X150800000Y-105700000D02*
X150800000Y-108467005D01*
X156400000Y-120100000D02*
X155000000Y-118700000D01*
X153000000Y-127000000D02*
X156400000Y-123600000D01*
X154900000Y-118600000D02*
X155000000Y-118700000D01*
X154900000Y-112567005D02*
X154900000Y-118600000D01*
X150800000Y-108467005D02*
X154900000Y-112567005D01*
%TO.N,Net-(J3-Pin_1)*%
X148400000Y-88600000D02*
X147100000Y-87300000D01*
X148400000Y-94300000D02*
X148400000Y-88600000D01*
%TO.N,/SDA*%
X155100000Y-120700000D02*
X155000000Y-120600000D01*
X151000000Y-124600000D02*
X155000000Y-120600000D01*
X155900000Y-112600000D02*
X151600000Y-108300000D01*
X155900000Y-114400000D02*
X155900000Y-112600000D01*
X151000000Y-127000000D02*
X151000000Y-124600000D01*
X155100000Y-122700000D02*
X155100000Y-120700000D01*
X151600000Y-108300000D02*
X151600000Y-105700000D01*
%TD*%
%TA.AperFunction,Conductor*%
%TO.N,+5V*%
G36*
X138743039Y-87419685D02*
G01*
X138788794Y-87472489D01*
X138800000Y-87524000D01*
X138800000Y-91387189D01*
X138780315Y-91454228D01*
X138727511Y-91499983D01*
X138658353Y-91509927D01*
X138594797Y-91480902D01*
X138570462Y-91452286D01*
X138542319Y-91406660D01*
X138542316Y-91406656D01*
X138418344Y-91282684D01*
X138269123Y-91190643D01*
X138269118Y-91190641D01*
X138102696Y-91135494D01*
X138102689Y-91135493D01*
X137999985Y-91125000D01*
X137737500Y-91125000D01*
X137737500Y-92626000D01*
X137717815Y-92693039D01*
X137665011Y-92738794D01*
X137613500Y-92750000D01*
X136275000Y-92750000D01*
X136275000Y-93174985D01*
X136285493Y-93277689D01*
X136285494Y-93277696D01*
X136340641Y-93444118D01*
X136340643Y-93444123D01*
X136432684Y-93593345D01*
X136437161Y-93599006D01*
X136434600Y-93601030D01*
X136461144Y-93649642D01*
X136456160Y-93719334D01*
X136414288Y-93775267D01*
X136348824Y-93799684D01*
X136339978Y-93800000D01*
X136124000Y-93800000D01*
X136056961Y-93780315D01*
X136011206Y-93727511D01*
X136000000Y-93676000D01*
X136000000Y-92250000D01*
X136275000Y-92250000D01*
X137237500Y-92250000D01*
X137237500Y-91125000D01*
X136975014Y-91125000D01*
X136872310Y-91135493D01*
X136872303Y-91135494D01*
X136705881Y-91190641D01*
X136705876Y-91190643D01*
X136556655Y-91282684D01*
X136432684Y-91406655D01*
X136340643Y-91555876D01*
X136340641Y-91555881D01*
X136285494Y-91722303D01*
X136285493Y-91722310D01*
X136275000Y-91825014D01*
X136275000Y-92250000D01*
X136000000Y-92250000D01*
X136000000Y-91200000D01*
X135342870Y-91200000D01*
X135301712Y-91190877D01*
X135301189Y-91192458D01*
X135294335Y-91190187D01*
X135294334Y-91190186D01*
X135127797Y-91135001D01*
X135127795Y-91135000D01*
X135025015Y-91124500D01*
X135025008Y-91124500D01*
X133999992Y-91124500D01*
X133999984Y-91124500D01*
X133897204Y-91135000D01*
X133897203Y-91135001D01*
X133730666Y-91190186D01*
X133730664Y-91190187D01*
X133723811Y-91192458D01*
X133723287Y-91190877D01*
X133682130Y-91200000D01*
X132724000Y-91200000D01*
X132656961Y-91180315D01*
X132611206Y-91127511D01*
X132600000Y-91076000D01*
X132600000Y-87524000D01*
X132619685Y-87456961D01*
X132672489Y-87411206D01*
X132724000Y-87400000D01*
X138676000Y-87400000D01*
X138743039Y-87419685D01*
G37*
%TD.AperFunction*%
%TD*%
%TA.AperFunction,Conductor*%
%TO.N,+5V*%
G36*
X147003834Y-100800340D02*
G01*
X147005353Y-100800499D01*
X147005354Y-100800500D01*
X147005355Y-100800500D01*
X147194645Y-100800500D01*
X147194646Y-100800500D01*
X147194646Y-100800499D01*
X147196166Y-100800340D01*
X147202653Y-100800000D01*
X147976000Y-100800000D01*
X148043039Y-100819685D01*
X148088794Y-100872489D01*
X148100000Y-100924000D01*
X148100000Y-103164046D01*
X148080315Y-103231085D01*
X148063685Y-103251722D01*
X147991207Y-103324200D01*
X147991208Y-103324200D01*
X147978951Y-103334020D01*
X147979134Y-103334241D01*
X147973123Y-103339213D01*
X147925772Y-103389636D01*
X147904889Y-103410519D01*
X147904877Y-103410532D01*
X147900621Y-103416017D01*
X147896837Y-103420447D01*
X147864937Y-103454418D01*
X147864936Y-103454420D01*
X147855284Y-103471976D01*
X147844610Y-103488226D01*
X147832329Y-103504061D01*
X147832324Y-103504068D01*
X147813815Y-103546838D01*
X147811245Y-103552084D01*
X147788803Y-103592906D01*
X147783822Y-103612307D01*
X147777521Y-103630710D01*
X147769562Y-103649102D01*
X147769561Y-103649105D01*
X147762271Y-103695127D01*
X147761087Y-103700846D01*
X147749501Y-103745972D01*
X147749500Y-103745982D01*
X147749500Y-103766016D01*
X147747973Y-103785415D01*
X147744840Y-103805194D01*
X147744840Y-103805195D01*
X147749225Y-103851583D01*
X147749500Y-103857421D01*
X147749500Y-104176000D01*
X147729815Y-104243039D01*
X147677011Y-104288794D01*
X147625500Y-104300000D01*
X146024000Y-104300000D01*
X145956961Y-104280315D01*
X145911206Y-104227511D01*
X145900000Y-104176000D01*
X145900000Y-100924000D01*
X145919685Y-100856961D01*
X145972489Y-100811206D01*
X146024000Y-100800000D01*
X146997347Y-100800000D01*
X147003834Y-100800340D01*
G37*
%TD.AperFunction*%
%TD*%
%TA.AperFunction,Conductor*%
%TO.N,GND*%
G36*
X142643039Y-73819685D02*
G01*
X142688794Y-73872489D01*
X142700000Y-73924000D01*
X142700000Y-79276000D01*
X142680315Y-79343039D01*
X142627511Y-79388794D01*
X142576000Y-79400000D01*
X142060023Y-79400000D01*
X141992984Y-79380315D01*
X141947229Y-79327511D01*
X141937285Y-79258353D01*
X141966310Y-79194797D01*
X141972342Y-79188319D01*
X142042315Y-79118345D01*
X142134356Y-78969124D01*
X142134358Y-78969119D01*
X142189505Y-78802697D01*
X142189506Y-78802690D01*
X142199999Y-78699986D01*
X142200000Y-78699973D01*
X142200000Y-78550000D01*
X139800001Y-78550000D01*
X139800001Y-78699986D01*
X139810494Y-78802697D01*
X139865641Y-78969119D01*
X139865643Y-78969124D01*
X139957684Y-79118345D01*
X140027658Y-79188319D01*
X140061143Y-79249642D01*
X140056159Y-79319334D01*
X140014287Y-79375267D01*
X139948823Y-79399684D01*
X139939977Y-79400000D01*
X138562730Y-79400000D01*
X138495691Y-79380315D01*
X138475049Y-79363681D01*
X138448695Y-79337327D01*
X138415210Y-79276004D01*
X138420194Y-79206312D01*
X138448695Y-79161964D01*
X138542317Y-79068342D01*
X138634356Y-78919124D01*
X138634358Y-78919119D01*
X138689505Y-78752697D01*
X138689506Y-78752690D01*
X138699999Y-78649986D01*
X138700000Y-78649973D01*
X138700000Y-78500000D01*
X136300001Y-78500000D01*
X136300001Y-78649986D01*
X136310494Y-78752697D01*
X136365641Y-78919119D01*
X136365643Y-78919124D01*
X136457684Y-79068345D01*
X136551304Y-79161965D01*
X136584789Y-79223288D01*
X136579805Y-79292980D01*
X136551306Y-79337325D01*
X136524950Y-79363681D01*
X136463630Y-79397166D01*
X136437270Y-79400000D01*
X136024000Y-79400000D01*
X135956961Y-79380315D01*
X135911206Y-79327511D01*
X135900000Y-79276000D01*
X135900000Y-78050000D01*
X139800000Y-78050000D01*
X140750000Y-78050000D01*
X140750000Y-77200000D01*
X141250000Y-77200000D01*
X141250000Y-78050000D01*
X142199999Y-78050000D01*
X142199999Y-77900028D01*
X142199998Y-77900013D01*
X142189505Y-77797302D01*
X142134358Y-77630880D01*
X142134356Y-77630875D01*
X142042315Y-77481654D01*
X141918345Y-77357684D01*
X141769124Y-77265643D01*
X141769119Y-77265641D01*
X141602697Y-77210494D01*
X141602690Y-77210493D01*
X141499986Y-77200000D01*
X141250000Y-77200000D01*
X140750000Y-77200000D01*
X140500029Y-77200000D01*
X140500012Y-77200001D01*
X140397302Y-77210494D01*
X140230880Y-77265641D01*
X140230875Y-77265643D01*
X140081654Y-77357684D01*
X139957684Y-77481654D01*
X139865643Y-77630875D01*
X139865641Y-77630880D01*
X139810494Y-77797302D01*
X139810493Y-77797309D01*
X139800000Y-77900013D01*
X139800000Y-78050000D01*
X135900000Y-78050000D01*
X135900000Y-78000000D01*
X136300000Y-78000000D01*
X137250000Y-78000000D01*
X137250000Y-77150000D01*
X137750000Y-77150000D01*
X137750000Y-78000000D01*
X138699999Y-78000000D01*
X138699999Y-77850028D01*
X138699998Y-77850013D01*
X138689505Y-77747302D01*
X138634358Y-77580880D01*
X138634356Y-77580875D01*
X138542315Y-77431654D01*
X138418345Y-77307684D01*
X138269124Y-77215643D01*
X138269119Y-77215641D01*
X138102697Y-77160494D01*
X138102690Y-77160493D01*
X137999986Y-77150000D01*
X137750000Y-77150000D01*
X137250000Y-77150000D01*
X137000029Y-77150000D01*
X137000012Y-77150001D01*
X136897302Y-77160494D01*
X136730880Y-77215641D01*
X136730875Y-77215643D01*
X136581654Y-77307684D01*
X136457684Y-77431654D01*
X136365643Y-77580875D01*
X136365641Y-77580880D01*
X136310494Y-77747302D01*
X136310493Y-77747309D01*
X136300000Y-77850013D01*
X136300000Y-78000000D01*
X135900000Y-78000000D01*
X135900000Y-73924000D01*
X135919685Y-73856961D01*
X135972489Y-73811206D01*
X136024000Y-73800000D01*
X142576000Y-73800000D01*
X142643039Y-73819685D01*
G37*
%TD.AperFunction*%
%TD*%
%TA.AperFunction,Conductor*%
%TO.N,+5V*%
G36*
X144668039Y-109970185D02*
G01*
X144713794Y-110022989D01*
X144721663Y-110059163D01*
X144725000Y-110062500D01*
X146617302Y-110062500D01*
X146635004Y-110052834D01*
X146661362Y-110050000D01*
X147801000Y-110050000D01*
X147868039Y-110069685D01*
X147913794Y-110122489D01*
X147925000Y-110174000D01*
X147925000Y-111274999D01*
X148024140Y-111274999D01*
X148024154Y-111274998D01*
X148125152Y-111264680D01*
X148288800Y-111210453D01*
X148288804Y-111210451D01*
X148310900Y-111196822D01*
X148378292Y-111178380D01*
X148444956Y-111199301D01*
X148489727Y-111252941D01*
X148500000Y-111302359D01*
X148500000Y-111652136D01*
X148480315Y-111719175D01*
X148427511Y-111764930D01*
X148358353Y-111774874D01*
X148303116Y-111752455D01*
X148252733Y-111715851D01*
X148252729Y-111715848D01*
X148079807Y-111638857D01*
X148079802Y-111638855D01*
X147934000Y-111607865D01*
X147894646Y-111599500D01*
X147705354Y-111599500D01*
X147672897Y-111606398D01*
X147520197Y-111638855D01*
X147520192Y-111638857D01*
X147347270Y-111715848D01*
X147347265Y-111715851D01*
X147194129Y-111827111D01*
X147067466Y-111967785D01*
X146972821Y-112131715D01*
X146972818Y-112131722D01*
X146932613Y-112255462D01*
X146914326Y-112311744D01*
X146894540Y-112500000D01*
X146914326Y-112688256D01*
X146914327Y-112688259D01*
X146972818Y-112868277D01*
X146972821Y-112868284D01*
X147067467Y-113032216D01*
X147154395Y-113128759D01*
X147194129Y-113172888D01*
X147347265Y-113284148D01*
X147347270Y-113284151D01*
X147520192Y-113361142D01*
X147520197Y-113361144D01*
X147705354Y-113400500D01*
X147705355Y-113400500D01*
X147894644Y-113400500D01*
X147894646Y-113400500D01*
X148079803Y-113361144D01*
X148252730Y-113284151D01*
X148303114Y-113247544D01*
X148368920Y-113224064D01*
X148436974Y-113239889D01*
X148485669Y-113289994D01*
X148500000Y-113347862D01*
X148500000Y-114999999D01*
X148500000Y-115000000D01*
X153878255Y-115097786D01*
X153944925Y-115118686D01*
X153989712Y-115172314D01*
X154000000Y-115221766D01*
X154000000Y-117547554D01*
X153980315Y-117614593D01*
X153927511Y-117660348D01*
X153858353Y-117670292D01*
X153810904Y-117653093D01*
X153669128Y-117565645D01*
X153669119Y-117565641D01*
X153502697Y-117510494D01*
X153502690Y-117510493D01*
X153399986Y-117500000D01*
X153250000Y-117500000D01*
X153250000Y-120726000D01*
X153230315Y-120793039D01*
X153177511Y-120838794D01*
X153126000Y-120850000D01*
X151900001Y-120850000D01*
X151900001Y-121099986D01*
X151910494Y-121202697D01*
X151965641Y-121369119D01*
X151965643Y-121369124D01*
X152057684Y-121518345D01*
X152181654Y-121642315D01*
X152330875Y-121734356D01*
X152330880Y-121734358D01*
X152497302Y-121789505D01*
X152497309Y-121789506D01*
X152600018Y-121799999D01*
X152616039Y-121799999D01*
X152683079Y-121819680D01*
X152728837Y-121872482D01*
X152738784Y-121941640D01*
X152709762Y-122005197D01*
X152703726Y-122011680D01*
X151551728Y-123163681D01*
X151490405Y-123197166D01*
X151464047Y-123200000D01*
X144324000Y-123200000D01*
X144256961Y-123180315D01*
X144211206Y-123127511D01*
X144200000Y-123076000D01*
X144200000Y-120350000D01*
X151900000Y-120350000D01*
X152750000Y-120350000D01*
X152750000Y-118950000D01*
X151900001Y-118950000D01*
X151900001Y-119199986D01*
X151910494Y-119302697D01*
X151965641Y-119469119D01*
X151965645Y-119469128D01*
X152037056Y-119584904D01*
X152055496Y-119652296D01*
X152037056Y-119715096D01*
X151965645Y-119830871D01*
X151965641Y-119830880D01*
X151910494Y-119997302D01*
X151910493Y-119997309D01*
X151900000Y-120100013D01*
X151900000Y-120350000D01*
X144200000Y-120350000D01*
X144200000Y-118450000D01*
X151900000Y-118450000D01*
X152750000Y-118450000D01*
X152750000Y-117500000D01*
X152600027Y-117500000D01*
X152600012Y-117500001D01*
X152497302Y-117510494D01*
X152330880Y-117565641D01*
X152330875Y-117565643D01*
X152181654Y-117657684D01*
X152057684Y-117781654D01*
X151965643Y-117930875D01*
X151965641Y-117930880D01*
X151910494Y-118097302D01*
X151910493Y-118097309D01*
X151900000Y-118200013D01*
X151900000Y-118450000D01*
X144200000Y-118450000D01*
X144200000Y-111219349D01*
X144219685Y-111152310D01*
X144231843Y-111136384D01*
X144269680Y-111094363D01*
X144364326Y-110930431D01*
X144422821Y-110750403D01*
X144442570Y-110562500D01*
X144725001Y-110562500D01*
X144725001Y-110611654D01*
X144735319Y-110712652D01*
X144789546Y-110876300D01*
X144789551Y-110876311D01*
X144880052Y-111023034D01*
X144880055Y-111023038D01*
X145001961Y-111144944D01*
X145001965Y-111144947D01*
X145148688Y-111235448D01*
X145148699Y-111235453D01*
X145312347Y-111289680D01*
X145413352Y-111299999D01*
X145450000Y-111299999D01*
X145950000Y-111299999D01*
X145986640Y-111299999D01*
X145986654Y-111299998D01*
X146087652Y-111289680D01*
X146251300Y-111235453D01*
X146251311Y-111235448D01*
X146398034Y-111144947D01*
X146398038Y-111144944D01*
X146519943Y-111023039D01*
X146558421Y-110960658D01*
X146610369Y-110913933D01*
X146679332Y-110902712D01*
X146743414Y-110930555D01*
X146769498Y-110960658D01*
X146792552Y-110998034D01*
X146792555Y-110998038D01*
X146914461Y-111119944D01*
X146914465Y-111119947D01*
X147061188Y-111210448D01*
X147061199Y-111210453D01*
X147224847Y-111264680D01*
X147325851Y-111274999D01*
X147425000Y-111274998D01*
X147425000Y-110550000D01*
X146695198Y-110550000D01*
X146677496Y-110559666D01*
X146651138Y-110562500D01*
X145950000Y-110562500D01*
X145950000Y-111299999D01*
X145450000Y-111299999D01*
X145450000Y-110562500D01*
X144725001Y-110562500D01*
X144442570Y-110562500D01*
X144442607Y-110562147D01*
X144422821Y-110373891D01*
X144364326Y-110193863D01*
X144331206Y-110136498D01*
X144314734Y-110068600D01*
X144337586Y-110002573D01*
X144392508Y-109959382D01*
X144438594Y-109950500D01*
X144601000Y-109950500D01*
X144668039Y-109970185D01*
G37*
%TD.AperFunction*%
%TD*%
%TA.AperFunction,Conductor*%
%TO.N,GND*%
G36*
X134363159Y-103119685D02*
G01*
X134408914Y-103172489D01*
X134418858Y-103241647D01*
X134395737Y-103295439D01*
X134396346Y-103295815D01*
X134393809Y-103299927D01*
X134393387Y-103300910D01*
X134392551Y-103301966D01*
X134302051Y-103448688D01*
X134302046Y-103448699D01*
X134247819Y-103612347D01*
X134237500Y-103713345D01*
X134237500Y-103750000D01*
X135401000Y-103750000D01*
X135468039Y-103769685D01*
X135513794Y-103822489D01*
X135525000Y-103874000D01*
X135525000Y-104974999D01*
X135624140Y-104974999D01*
X135624154Y-104974998D01*
X135725152Y-104964680D01*
X135888800Y-104910453D01*
X135888807Y-104910450D01*
X136010902Y-104835140D01*
X136078294Y-104816699D01*
X136144958Y-104837621D01*
X136189728Y-104891262D01*
X136200000Y-104940678D01*
X136200000Y-106140050D01*
X136180315Y-106207089D01*
X136153014Y-106237234D01*
X130900000Y-110399999D01*
X130900000Y-115264044D01*
X130880315Y-115331083D01*
X130863681Y-115351725D01*
X130791205Y-115424201D01*
X130778951Y-115434020D01*
X130779134Y-115434241D01*
X130773123Y-115439213D01*
X130725772Y-115489636D01*
X130704889Y-115510519D01*
X130704877Y-115510532D01*
X130700621Y-115516017D01*
X130696837Y-115520447D01*
X130664937Y-115554418D01*
X130664936Y-115554420D01*
X130655284Y-115571976D01*
X130644610Y-115588226D01*
X130632329Y-115604061D01*
X130632324Y-115604068D01*
X130613815Y-115646838D01*
X130611245Y-115652084D01*
X130588803Y-115692906D01*
X130583822Y-115712307D01*
X130577521Y-115730710D01*
X130569562Y-115749102D01*
X130569561Y-115749105D01*
X130562271Y-115795127D01*
X130561087Y-115800846D01*
X130549501Y-115845972D01*
X130549500Y-115845982D01*
X130549500Y-115866016D01*
X130547973Y-115885415D01*
X130544840Y-115905194D01*
X130544840Y-115905195D01*
X130549225Y-115951583D01*
X130549500Y-115957421D01*
X130549500Y-117792254D01*
X130547775Y-117807872D01*
X130548061Y-117807899D01*
X130547326Y-117815666D01*
X130549499Y-117884814D01*
X130549499Y-117914351D01*
X130550368Y-117921232D01*
X130550826Y-117927051D01*
X130552290Y-117973624D01*
X130552291Y-117973627D01*
X130557880Y-117992867D01*
X130561824Y-118011911D01*
X130564336Y-118031792D01*
X130571743Y-118050500D01*
X130581490Y-118075119D01*
X130583382Y-118080647D01*
X130596381Y-118125388D01*
X130606580Y-118142634D01*
X130615138Y-118160103D01*
X130622514Y-118178732D01*
X130649898Y-118216423D01*
X130653106Y-118221307D01*
X130676827Y-118261416D01*
X130676833Y-118261424D01*
X130690990Y-118275580D01*
X130703628Y-118290376D01*
X130715405Y-118306586D01*
X130715406Y-118306587D01*
X130751309Y-118336288D01*
X130755620Y-118340210D01*
X130863681Y-118448271D01*
X130897166Y-118509594D01*
X130900000Y-118535952D01*
X130899999Y-119999999D01*
X130900000Y-120000000D01*
X137955018Y-120000000D01*
X138022057Y-120019685D01*
X138034519Y-120028839D01*
X145856122Y-126563343D01*
X145894949Y-126621431D01*
X145900614Y-126657171D01*
X145907053Y-127255949D01*
X145888090Y-127323196D01*
X145835781Y-127369516D01*
X145766734Y-127380203D01*
X145708749Y-127356548D01*
X145642093Y-127306649D01*
X145642086Y-127306645D01*
X145507379Y-127256403D01*
X145507372Y-127256401D01*
X145447844Y-127250000D01*
X144850000Y-127250000D01*
X144850000Y-131250000D01*
X145447828Y-131250000D01*
X145447844Y-131249999D01*
X145507372Y-131243598D01*
X145507379Y-131243596D01*
X145642086Y-131193354D01*
X145642089Y-131193352D01*
X145751259Y-131111627D01*
X145816723Y-131087209D01*
X145884996Y-131102060D01*
X145934402Y-131151465D01*
X145949564Y-131209560D01*
X145986298Y-134625843D01*
X145967335Y-134693090D01*
X145915026Y-134739410D01*
X145847678Y-134750310D01*
X145754473Y-134739239D01*
X144817207Y-134611817D01*
X144755731Y-134602399D01*
X144583607Y-134576031D01*
X144179159Y-134507061D01*
X143651170Y-134417024D01*
X143418918Y-134373369D01*
X142492421Y-134182970D01*
X142261720Y-134131484D01*
X141342185Y-133909902D01*
X141113385Y-133850661D01*
X140201864Y-133598151D01*
X140116112Y-133572829D01*
X139975183Y-133531213D01*
X139072674Y-133248049D01*
X138848426Y-133173508D01*
X137955997Y-132860025D01*
X137734367Y-132777942D01*
X136853039Y-132434498D01*
X136634332Y-132344986D01*
X135765085Y-131971963D01*
X135549530Y-131875118D01*
X134693413Y-131472966D01*
X134481194Y-131368868D01*
X133639190Y-130938053D01*
X133430570Y-130826826D01*
X132603603Y-130367821D01*
X132398896Y-130249634D01*
X131587887Y-129762952D01*
X131387269Y-129637906D01*
X131174125Y-129500000D01*
X143300000Y-129500000D01*
X143300000Y-130797844D01*
X143306401Y-130857372D01*
X143306403Y-130857379D01*
X143356645Y-130992086D01*
X143356649Y-130992093D01*
X143442809Y-131107187D01*
X143442812Y-131107190D01*
X143557906Y-131193350D01*
X143557913Y-131193354D01*
X143692620Y-131243596D01*
X143692627Y-131243598D01*
X143752155Y-131249999D01*
X143752172Y-131250000D01*
X144350000Y-131250000D01*
X144350000Y-129500000D01*
X143300000Y-129500000D01*
X131174125Y-129500000D01*
X130593189Y-129124129D01*
X130408262Y-129000000D01*
X143300000Y-129000000D01*
X144350000Y-129000000D01*
X144350000Y-127250000D01*
X143752155Y-127250000D01*
X143692627Y-127256401D01*
X143692620Y-127256403D01*
X143557913Y-127306645D01*
X143557906Y-127306649D01*
X143442812Y-127392809D01*
X143442809Y-127392812D01*
X143356649Y-127507906D01*
X143356645Y-127507913D01*
X143306403Y-127642620D01*
X143306401Y-127642627D01*
X143300000Y-127702155D01*
X143300000Y-129000000D01*
X130408262Y-129000000D01*
X130396880Y-128992360D01*
X129620600Y-128452052D01*
X129428896Y-128313758D01*
X128671255Y-127747501D01*
X128484381Y-127602850D01*
X127746304Y-127011336D01*
X127564365Y-126860408D01*
X127218325Y-126563343D01*
X126846693Y-126244307D01*
X126740984Y-126150412D01*
X126669998Y-126087358D01*
X125973523Y-125447351D01*
X125802212Y-125284507D01*
X125127763Y-124621353D01*
X124962080Y-124452848D01*
X124310384Y-123767265D01*
X124150493Y-123593266D01*
X123522324Y-122886064D01*
X123368391Y-122706754D01*
X122764495Y-121978774D01*
X122616662Y-121794313D01*
X122525942Y-121677112D01*
X122500475Y-121612051D01*
X122500000Y-121601213D01*
X122500000Y-118950000D01*
X123000000Y-118950000D01*
X123000000Y-119397844D01*
X123006401Y-119457372D01*
X123006403Y-119457379D01*
X123056645Y-119592086D01*
X123056649Y-119592093D01*
X123142809Y-119707187D01*
X123142812Y-119707190D01*
X123257906Y-119793350D01*
X123257913Y-119793354D01*
X123392620Y-119843596D01*
X123392627Y-119843598D01*
X123452155Y-119849999D01*
X123452172Y-119850000D01*
X123750000Y-119850000D01*
X123750000Y-118950000D01*
X124250000Y-118950000D01*
X124250000Y-119850000D01*
X124547828Y-119850000D01*
X124547844Y-119849999D01*
X124607372Y-119843598D01*
X124607379Y-119843596D01*
X124742086Y-119793354D01*
X124742093Y-119793350D01*
X124857187Y-119707190D01*
X124857190Y-119707187D01*
X124943350Y-119592093D01*
X124943354Y-119592086D01*
X124993596Y-119457379D01*
X124993598Y-119457372D01*
X124999999Y-119397844D01*
X125000000Y-119397827D01*
X125000000Y-118950000D01*
X124250000Y-118950000D01*
X123750000Y-118950000D01*
X123000000Y-118950000D01*
X122500000Y-118950000D01*
X122500000Y-117597870D01*
X122999500Y-117597870D01*
X122999501Y-117597876D01*
X123005908Y-117657483D01*
X123043168Y-117757381D01*
X123048152Y-117827073D01*
X123043168Y-117844046D01*
X123006403Y-117942617D01*
X123006401Y-117942627D01*
X123000000Y-118002155D01*
X123000000Y-118450000D01*
X125000000Y-118450000D01*
X125000000Y-118002172D01*
X124999999Y-118002155D01*
X124993598Y-117942627D01*
X124993596Y-117942620D01*
X124956831Y-117844047D01*
X124951847Y-117774356D01*
X124956831Y-117757381D01*
X124994091Y-117657483D01*
X125000500Y-117597873D01*
X125000500Y-116900003D01*
X125694435Y-116900003D01*
X125714630Y-117079249D01*
X125714631Y-117079254D01*
X125774211Y-117249523D01*
X125870183Y-117402262D01*
X125870184Y-117402262D01*
X125997738Y-117529816D01*
X126150478Y-117625789D01*
X126320745Y-117685368D01*
X126320750Y-117685369D01*
X126411246Y-117695565D01*
X126455040Y-117700499D01*
X126455043Y-117700500D01*
X126455046Y-117700500D01*
X126544957Y-117700500D01*
X126544958Y-117700499D01*
X126612104Y-117692934D01*
X126679249Y-117685369D01*
X126679252Y-117685368D01*
X126679255Y-117685368D01*
X126849522Y-117625789D01*
X127002262Y-117529816D01*
X127129816Y-117402262D01*
X127225789Y-117249522D01*
X127285368Y-117079255D01*
X127285369Y-117079249D01*
X127305565Y-116900003D01*
X127305565Y-116899996D01*
X127285369Y-116720750D01*
X127285368Y-116720745D01*
X127225788Y-116550476D01*
X127129815Y-116397737D01*
X127002262Y-116270184D01*
X126849523Y-116174211D01*
X126679254Y-116114631D01*
X126679249Y-116114630D01*
X126544960Y-116099500D01*
X126544954Y-116099500D01*
X126455046Y-116099500D01*
X126455039Y-116099500D01*
X126320750Y-116114630D01*
X126320745Y-116114631D01*
X126150476Y-116174211D01*
X125997737Y-116270184D01*
X125870184Y-116397737D01*
X125774211Y-116550476D01*
X125714631Y-116720745D01*
X125714630Y-116720750D01*
X125694435Y-116899996D01*
X125694435Y-116900003D01*
X125000500Y-116900003D01*
X125000499Y-116202128D01*
X124994091Y-116142517D01*
X124956830Y-116042617D01*
X124951847Y-115972927D01*
X124956831Y-115955951D01*
X124993597Y-115857376D01*
X124993598Y-115857372D01*
X124999999Y-115797844D01*
X125000000Y-115797827D01*
X125000000Y-115350000D01*
X123000000Y-115350000D01*
X123000000Y-115797844D01*
X123006401Y-115857372D01*
X123006403Y-115857380D01*
X123043168Y-115955952D01*
X123048152Y-116025644D01*
X123043168Y-116042617D01*
X123005909Y-116142514D01*
X123005908Y-116142516D01*
X123002501Y-116174211D01*
X122999501Y-116202123D01*
X122999500Y-116202135D01*
X122999500Y-117597870D01*
X122500000Y-117597870D01*
X122500000Y-114850000D01*
X123000000Y-114850000D01*
X123750000Y-114850000D01*
X123750000Y-113950000D01*
X124250000Y-113950000D01*
X124250000Y-114850000D01*
X125000000Y-114850000D01*
X125000000Y-114402172D01*
X124999999Y-114402155D01*
X124993598Y-114342627D01*
X124993596Y-114342620D01*
X124943354Y-114207913D01*
X124943350Y-114207906D01*
X124857190Y-114092812D01*
X124857187Y-114092809D01*
X124742093Y-114006649D01*
X124742086Y-114006645D01*
X124607379Y-113956403D01*
X124607372Y-113956401D01*
X124547844Y-113950000D01*
X124250000Y-113950000D01*
X123750000Y-113950000D01*
X123452155Y-113950000D01*
X123392627Y-113956401D01*
X123392620Y-113956403D01*
X123257913Y-114006645D01*
X123257906Y-114006649D01*
X123142812Y-114092809D01*
X123142809Y-114092812D01*
X123056649Y-114207906D01*
X123056645Y-114207913D01*
X123006403Y-114342620D01*
X123006401Y-114342627D01*
X123000000Y-114402155D01*
X123000000Y-114850000D01*
X122500000Y-114850000D01*
X122500000Y-110652445D01*
X122519685Y-110585406D01*
X122572489Y-110539651D01*
X122641647Y-110529707D01*
X122689097Y-110546906D01*
X122830875Y-110634356D01*
X122830880Y-110634358D01*
X122997302Y-110689505D01*
X122997309Y-110689506D01*
X123100019Y-110699999D01*
X123249999Y-110699999D01*
X123749999Y-110699999D01*
X123899972Y-110699999D01*
X123899986Y-110699998D01*
X124002697Y-110689505D01*
X124169119Y-110634358D01*
X124169124Y-110634356D01*
X124318345Y-110542315D01*
X124442315Y-110418345D01*
X124534356Y-110269124D01*
X124534358Y-110269119D01*
X124589505Y-110102697D01*
X124589506Y-110102690D01*
X124599999Y-109999986D01*
X124600000Y-109999973D01*
X124600000Y-109750000D01*
X123750000Y-109750000D01*
X123749999Y-110699999D01*
X123249999Y-110699999D01*
X123250000Y-110699998D01*
X123250000Y-109249999D01*
X123749999Y-109249999D01*
X123750000Y-109250000D01*
X124599998Y-109250000D01*
X124599999Y-109000028D01*
X124599998Y-109000013D01*
X124589505Y-108897302D01*
X124534358Y-108730880D01*
X124534356Y-108730875D01*
X124442315Y-108581654D01*
X124318345Y-108457684D01*
X124169124Y-108365643D01*
X124169119Y-108365641D01*
X124002697Y-108310494D01*
X124002690Y-108310493D01*
X123899986Y-108300000D01*
X123750000Y-108300000D01*
X123749999Y-109249999D01*
X123250000Y-109249999D01*
X123250000Y-108300000D01*
X123100027Y-108300000D01*
X123100012Y-108300001D01*
X122997302Y-108310494D01*
X122830880Y-108365641D01*
X122830871Y-108365645D01*
X122689096Y-108453093D01*
X122621704Y-108471533D01*
X122555040Y-108450610D01*
X122510271Y-108396968D01*
X122500000Y-108347554D01*
X122500000Y-106924000D01*
X122519685Y-106856961D01*
X122572489Y-106811206D01*
X122624000Y-106800000D01*
X127300000Y-106800000D01*
X127300000Y-104250000D01*
X134237501Y-104250000D01*
X134237501Y-104286654D01*
X134247819Y-104387652D01*
X134302046Y-104551300D01*
X134302051Y-104551311D01*
X134392552Y-104698034D01*
X134392555Y-104698038D01*
X134514461Y-104819944D01*
X134514465Y-104819947D01*
X134661188Y-104910448D01*
X134661199Y-104910453D01*
X134824847Y-104964680D01*
X134925851Y-104974999D01*
X135025000Y-104974998D01*
X135025000Y-104250000D01*
X134237501Y-104250000D01*
X127300000Y-104250000D01*
X127300000Y-103224000D01*
X127319685Y-103156961D01*
X127372489Y-103111206D01*
X127424000Y-103100000D01*
X134296120Y-103100000D01*
X134363159Y-103119685D01*
G37*
%TD.AperFunction*%
%TD*%
M02*
