%TF.GenerationSoftware,KiCad,Pcbnew,7.0.6-7.0.6~ubuntu20.04.1*%
%TF.CreationDate,2023-07-18T17:21:29-05:00*%
%TF.ProjectId,basic_microcontroller,62617369-635f-46d6-9963-726f636f6e74,rev?*%
%TF.SameCoordinates,Original*%
%TF.FileFunction,Copper,L4,Bot*%
%TF.FilePolarity,Positive*%
%FSLAX46Y46*%
G04 Gerber Fmt 4.6, Leading zero omitted, Abs format (unit mm)*
G04 Created by KiCad (PCBNEW 7.0.6-7.0.6~ubuntu20.04.1) date 2023-07-18 17:21:29*
%MOMM*%
%LPD*%
G01*
G04 APERTURE LIST*
G04 Aperture macros list*
%AMRoundRect*
0 Rectangle with rounded corners*
0 $1 Rounding radius*
0 $2 $3 $4 $5 $6 $7 $8 $9 X,Y pos of 4 corners*
0 Add a 4 corners polygon primitive as box body*
4,1,4,$2,$3,$4,$5,$6,$7,$8,$9,$2,$3,0*
0 Add four circle primitives for the rounded corners*
1,1,$1+$1,$2,$3*
1,1,$1+$1,$4,$5*
1,1,$1+$1,$6,$7*
1,1,$1+$1,$8,$9*
0 Add four rect primitives between the rounded corners*
20,1,$1+$1,$2,$3,$4,$5,0*
20,1,$1+$1,$4,$5,$6,$7,0*
20,1,$1+$1,$6,$7,$8,$9,0*
20,1,$1+$1,$8,$9,$2,$3,0*%
G04 Aperture macros list end*
%TA.AperFunction,ComponentPad*%
%ADD10R,2.200000X2.200000*%
%TD*%
%TA.AperFunction,ComponentPad*%
%ADD11C,2.200000*%
%TD*%
%TA.AperFunction,ComponentPad*%
%ADD12RoundRect,0.250000X-0.600000X-0.600000X0.600000X-0.600000X0.600000X0.600000X-0.600000X0.600000X0*%
%TD*%
%TA.AperFunction,ComponentPad*%
%ADD13C,1.700000*%
%TD*%
%TA.AperFunction,ComponentPad*%
%ADD14C,2.000000*%
%TD*%
%TA.AperFunction,ComponentPad*%
%ADD15C,2.565000*%
%TD*%
%TA.AperFunction,SMDPad,CuDef*%
%ADD16RoundRect,0.250000X0.325000X0.450000X-0.325000X0.450000X-0.325000X-0.450000X0.325000X-0.450000X0*%
%TD*%
%TA.AperFunction,SMDPad,CuDef*%
%ADD17RoundRect,0.250000X0.350000X0.450000X-0.350000X0.450000X-0.350000X-0.450000X0.350000X-0.450000X0*%
%TD*%
%TA.AperFunction,ViaPad*%
%ADD18C,0.800000*%
%TD*%
%TA.AperFunction,Conductor*%
%ADD19C,0.250000*%
%TD*%
G04 APERTURE END LIST*
D10*
%TO.P,J3,1,Pin_1*%
%TO.N,Net-(J3-Pin_1)*%
X151900000Y-68800000D03*
D11*
%TO.P,J3,2,Pin_2*%
%TO.N,GND*%
X149360000Y-68800000D03*
%TD*%
D12*
%TO.P,J2,1,MISO*%
%TO.N,/MISO*%
X177747500Y-96955000D03*
D13*
%TO.P,J2,2,VCC*%
%TO.N,+5V*%
X180287500Y-96955000D03*
%TO.P,J2,3,SCK*%
%TO.N,/SCK*%
X177747500Y-99495000D03*
%TO.P,J2,4,MOSI*%
%TO.N,/MOSI*%
X180287500Y-99495000D03*
%TO.P,J2,5,~{RST}*%
%TO.N,/RESET*%
X177747500Y-102035000D03*
%TO.P,J2,6,GND*%
%TO.N,GND*%
X180287500Y-102035000D03*
%TD*%
D14*
%TO.P,J1,MH,SHIELD*%
%TO.N,Net-(J1-SHIELD)*%
X125100000Y-95390000D03*
D15*
X120600000Y-95390000D03*
D14*
X125100000Y-104610000D03*
D15*
X120600000Y-104610000D03*
%TD*%
D16*
%TO.P,D25,1,K*%
%TO.N,Net-(D25-K)*%
X145525000Y-110500000D03*
%TO.P,D25,2,A*%
%TO.N,/LED_ROW5*%
X143475000Y-110500000D03*
%TD*%
%TO.P,D13,1,K*%
%TO.N,Net-(D13-K)*%
X156525000Y-100000000D03*
%TO.P,D13,2,A*%
%TO.N,/LED_ROW3*%
X154475000Y-100000000D03*
%TD*%
D17*
%TO.P,R21,1*%
%TO.N,Net-(D15-K)*%
X145500000Y-102000000D03*
%TO.P,R21,2*%
%TO.N,/LED_COL4*%
X143500000Y-102000000D03*
%TD*%
%TO.P,R24,1*%
%TO.N,Net-(D18-K)*%
X156500000Y-107000000D03*
%TO.P,R24,2*%
%TO.N,/LED_COL2*%
X154500000Y-107000000D03*
%TD*%
D16*
%TO.P,D5,1,K*%
%TO.N,Net-(D5-K)*%
X145525000Y-90000000D03*
%TO.P,D5,2,A*%
%TO.N,/LED_ROW1*%
X143475000Y-90000000D03*
%TD*%
D17*
%TO.P,R18,1*%
%TO.N,Net-(D12-K)*%
X161500000Y-102000000D03*
%TO.P,R18,2*%
%TO.N,/LED_COL1*%
X159500000Y-102000000D03*
%TD*%
D16*
%TO.P,D17,1,K*%
%TO.N,Net-(D17-K)*%
X161525000Y-105000000D03*
%TO.P,D17,2,A*%
%TO.N,/LED_ROW4*%
X159475000Y-105000000D03*
%TD*%
D17*
%TO.P,R20,1*%
%TO.N,Net-(D14-K)*%
X151000000Y-102000000D03*
%TO.P,R20,2*%
%TO.N,/LED_COL3*%
X149000000Y-102000000D03*
%TD*%
D16*
%TO.P,D18,1,K*%
%TO.N,Net-(D18-K)*%
X156525000Y-105000000D03*
%TO.P,D18,2,A*%
%TO.N,/LED_ROW4*%
X154475000Y-105000000D03*
%TD*%
D17*
%TO.P,R15,1*%
%TO.N,Net-(D9-K)*%
X151000000Y-97000000D03*
%TO.P,R15,2*%
%TO.N,/LED_COL3*%
X149000000Y-97000000D03*
%TD*%
%TO.P,R16,1*%
%TO.N,Net-(D10-K)*%
X145500000Y-97000000D03*
%TO.P,R16,2*%
%TO.N,/LED_COL4*%
X143500000Y-97000000D03*
%TD*%
D16*
%TO.P,D23,1,K*%
%TO.N,Net-(D23-K)*%
X156525000Y-110500000D03*
%TO.P,D23,2,A*%
%TO.N,/LED_ROW5*%
X154475000Y-110500000D03*
%TD*%
D17*
%TO.P,R25,1*%
%TO.N,Net-(D19-K)*%
X151000000Y-107000000D03*
%TO.P,R25,2*%
%TO.N,/LED_COL3*%
X149000000Y-107000000D03*
%TD*%
D16*
%TO.P,D4,1,K*%
%TO.N,Net-(D4-K)*%
X151025000Y-90000000D03*
%TO.P,D4,2,A*%
%TO.N,/LED_ROW1*%
X148975000Y-90000000D03*
%TD*%
%TO.P,D26,1,K*%
%TO.N,Net-(D26-K)*%
X140025000Y-110500000D03*
%TO.P,D26,2,A*%
%TO.N,/LED_ROW5*%
X137975000Y-110500000D03*
%TD*%
D17*
%TO.P,R12,1*%
%TO.N,Net-(D6-K)*%
X140000000Y-92000000D03*
%TO.P,R12,2*%
%TO.N,/LED_COL5*%
X138000000Y-92000000D03*
%TD*%
D16*
%TO.P,D19,1,K*%
%TO.N,Net-(D19-K)*%
X151025000Y-105000000D03*
%TO.P,D19,2,A*%
%TO.N,/LED_ROW4*%
X148975000Y-105000000D03*
%TD*%
D17*
%TO.P,R23,1*%
%TO.N,Net-(D17-K)*%
X161500000Y-107000000D03*
%TO.P,R23,2*%
%TO.N,/LED_COL1*%
X159500000Y-107000000D03*
%TD*%
%TO.P,R11,1*%
%TO.N,Net-(D5-K)*%
X145500000Y-92000000D03*
%TO.P,R11,2*%
%TO.N,/LED_COL4*%
X143500000Y-92000000D03*
%TD*%
%TO.P,R8,1*%
%TO.N,Net-(D2-K)*%
X161500000Y-92000000D03*
%TO.P,R8,2*%
%TO.N,/LED_COL1*%
X159500000Y-92000000D03*
%TD*%
%TO.P,R30,1*%
%TO.N,Net-(D24-K)*%
X151000000Y-112500000D03*
%TO.P,R30,2*%
%TO.N,/LED_COL3*%
X149000000Y-112500000D03*
%TD*%
%TO.P,R29,1*%
%TO.N,Net-(D23-K)*%
X156500000Y-112500000D03*
%TO.P,R29,2*%
%TO.N,/LED_COL2*%
X154500000Y-112500000D03*
%TD*%
D16*
%TO.P,D14,1,K*%
%TO.N,Net-(D14-K)*%
X151025000Y-100000000D03*
%TO.P,D14,2,A*%
%TO.N,/LED_ROW3*%
X148975000Y-100000000D03*
%TD*%
D17*
%TO.P,R14,1*%
%TO.N,Net-(D8-K)*%
X156500000Y-97000000D03*
%TO.P,R14,2*%
%TO.N,/LED_COL2*%
X154500000Y-97000000D03*
%TD*%
%TO.P,R9,1*%
%TO.N,Net-(D3-K)*%
X156500000Y-92000000D03*
%TO.P,R9,2*%
%TO.N,/LED_COL2*%
X154500000Y-92000000D03*
%TD*%
D16*
%TO.P,D10,1,K*%
%TO.N,Net-(D10-K)*%
X145525000Y-95000000D03*
%TO.P,D10,2,A*%
%TO.N,/LED_ROW2*%
X143475000Y-95000000D03*
%TD*%
%TO.P,D16,1,K*%
%TO.N,Net-(D16-K)*%
X140025000Y-100000000D03*
%TO.P,D16,2,A*%
%TO.N,/LED_ROW3*%
X137975000Y-100000000D03*
%TD*%
%TO.P,D21,1,K*%
%TO.N,Net-(D21-K)*%
X140025000Y-105000000D03*
%TO.P,D21,2,A*%
%TO.N,/LED_ROW4*%
X137975000Y-105000000D03*
%TD*%
D17*
%TO.P,R10,1*%
%TO.N,Net-(D4-K)*%
X151000000Y-92000000D03*
%TO.P,R10,2*%
%TO.N,/LED_COL3*%
X149000000Y-92000000D03*
%TD*%
%TO.P,R13,1*%
%TO.N,Net-(D7-K)*%
X161500000Y-97000000D03*
%TO.P,R13,2*%
%TO.N,/LED_COL1*%
X159500000Y-97000000D03*
%TD*%
D16*
%TO.P,D7,1,K*%
%TO.N,Net-(D7-K)*%
X161525000Y-95000000D03*
%TO.P,D7,2,A*%
%TO.N,/LED_ROW2*%
X159475000Y-95000000D03*
%TD*%
%TO.P,D12,1,K*%
%TO.N,Net-(D12-K)*%
X161525000Y-100000000D03*
%TO.P,D12,2,A*%
%TO.N,/LED_ROW3*%
X159475000Y-100000000D03*
%TD*%
%TO.P,D8,1,K*%
%TO.N,Net-(D8-K)*%
X156525000Y-95000000D03*
%TO.P,D8,2,A*%
%TO.N,/LED_ROW2*%
X154475000Y-95000000D03*
%TD*%
%TO.P,D20,1,K*%
%TO.N,Net-(D20-K)*%
X145525000Y-105000000D03*
%TO.P,D20,2,A*%
%TO.N,/LED_ROW4*%
X143475000Y-105000000D03*
%TD*%
D17*
%TO.P,R32,1*%
%TO.N,Net-(D26-K)*%
X140000000Y-112500000D03*
%TO.P,R32,2*%
%TO.N,/LED_COL5*%
X138000000Y-112500000D03*
%TD*%
D16*
%TO.P,D22,1,K*%
%TO.N,Net-(D22-K)*%
X161525000Y-110500000D03*
%TO.P,D22,2,A*%
%TO.N,/LED_ROW5*%
X159475000Y-110500000D03*
%TD*%
%TO.P,D6,1,K*%
%TO.N,Net-(D6-K)*%
X140025000Y-90000000D03*
%TO.P,D6,2,A*%
%TO.N,/LED_ROW1*%
X137975000Y-90000000D03*
%TD*%
%TO.P,D24,1,K*%
%TO.N,Net-(D24-K)*%
X151025000Y-110500000D03*
%TO.P,D24,2,A*%
%TO.N,/LED_ROW5*%
X148975000Y-110500000D03*
%TD*%
D17*
%TO.P,R17,1*%
%TO.N,Net-(D11-K)*%
X140000000Y-96900000D03*
%TO.P,R17,2*%
%TO.N,/LED_COL5*%
X138000000Y-96900000D03*
%TD*%
%TO.P,R26,1*%
%TO.N,Net-(D20-K)*%
X145500000Y-107000000D03*
%TO.P,R26,2*%
%TO.N,/LED_COL4*%
X143500000Y-107000000D03*
%TD*%
D16*
%TO.P,D9,1,K*%
%TO.N,Net-(D9-K)*%
X151025000Y-95000000D03*
%TO.P,D9,2,A*%
%TO.N,/LED_ROW2*%
X148975000Y-95000000D03*
%TD*%
%TO.P,D2,1,K*%
%TO.N,Net-(D2-K)*%
X161525000Y-90000000D03*
%TO.P,D2,2,A*%
%TO.N,/LED_ROW1*%
X159475000Y-90000000D03*
%TD*%
D17*
%TO.P,R22,1*%
%TO.N,Net-(D16-K)*%
X140000000Y-102000000D03*
%TO.P,R22,2*%
%TO.N,/LED_COL5*%
X138000000Y-102000000D03*
%TD*%
%TO.P,R31,1*%
%TO.N,Net-(D25-K)*%
X145500000Y-112500000D03*
%TO.P,R31,2*%
%TO.N,/LED_COL4*%
X143500000Y-112500000D03*
%TD*%
D16*
%TO.P,D3,1,K*%
%TO.N,Net-(D3-K)*%
X156525000Y-90000000D03*
%TO.P,D3,2,A*%
%TO.N,/LED_ROW1*%
X154475000Y-90000000D03*
%TD*%
%TO.P,D11,1,K*%
%TO.N,Net-(D11-K)*%
X140025000Y-95000000D03*
%TO.P,D11,2,A*%
%TO.N,/LED_ROW2*%
X137975000Y-95000000D03*
%TD*%
D17*
%TO.P,R28,1*%
%TO.N,Net-(D22-K)*%
X161500000Y-112500000D03*
%TO.P,R28,2*%
%TO.N,/LED_COL1*%
X159500000Y-112500000D03*
%TD*%
%TO.P,R19,1*%
%TO.N,Net-(D13-K)*%
X156500000Y-102000000D03*
%TO.P,R19,2*%
%TO.N,/LED_COL2*%
X154500000Y-102000000D03*
%TD*%
D16*
%TO.P,D15,1,K*%
%TO.N,Net-(D15-K)*%
X145525000Y-100000000D03*
%TO.P,D15,2,A*%
%TO.N,/LED_ROW3*%
X143475000Y-100000000D03*
%TD*%
D17*
%TO.P,R27,1*%
%TO.N,Net-(D21-K)*%
X140000000Y-107000000D03*
%TO.P,R27,2*%
%TO.N,/LED_COL5*%
X138000000Y-107000000D03*
%TD*%
D18*
%TO.N,+5V*%
X156200000Y-87300000D03*
%TO.N,GND*%
X138400000Y-75300000D03*
X131600000Y-96800000D03*
X136800000Y-123200000D03*
X133000000Y-124900000D03*
X134900000Y-123200000D03*
X136800000Y-124900000D03*
X139900000Y-75300000D03*
X133000000Y-123200000D03*
X158000000Y-106100000D03*
X134900000Y-124900000D03*
X154400000Y-87300000D03*
X138400000Y-76700000D03*
X139900000Y-76700000D03*
%TO.N,Net-(U1-XTAL1)*%
X161700500Y-108749500D03*
X151900000Y-113700000D03*
%TO.N,Net-(U1-XTAL2)*%
X163500000Y-101000000D03*
X149200000Y-109024500D03*
%TO.N,+5V*%
X135900000Y-88700000D03*
X150600000Y-120800000D03*
X134300000Y-90100000D03*
X147500000Y-120800000D03*
X134300000Y-88700000D03*
X149000000Y-119400000D03*
X150500000Y-119400000D03*
X135900000Y-90100000D03*
X148500000Y-75700000D03*
X147500000Y-119400000D03*
X149000000Y-120800000D03*
%TO.N,/MISO*%
X136100000Y-114800000D03*
%TO.N,/SCK*%
X133900000Y-114700000D03*
%TO.N,/MOSI*%
X135037590Y-116249500D03*
%TO.N,/RESET*%
X137200000Y-116249500D03*
%TO.N,/LED_ROW1*%
X149200000Y-87300000D03*
%TO.N,/LED_ROW2*%
X150000000Y-93200000D03*
%TO.N,/LED_ROW3*%
X149000000Y-98500000D03*
%TO.N,/LED_ROW4*%
X149100000Y-104300000D03*
X152600000Y-100100000D03*
%TO.N,/LED_ROW5*%
X143537147Y-110562147D03*
X151200000Y-87300000D03*
%TO.N,/LED_COL1*%
X159500000Y-107000000D03*
%TO.N,/LED_COL2*%
X152800000Y-107300000D03*
X152300000Y-91900000D03*
X152600000Y-101300000D03*
X152800000Y-112700000D03*
X152600000Y-97700000D03*
%TO.N,/LED_COL3*%
X147100000Y-99900000D03*
X147200000Y-96900000D03*
X147200000Y-107200000D03*
X147300000Y-90700000D03*
X147800000Y-112500000D03*
%TO.N,/LED_COL4*%
X141800000Y-96875500D03*
X141800000Y-107000000D03*
X154800000Y-108300000D03*
X141800000Y-92000000D03*
X141800000Y-101112299D03*
X141800000Y-112600000D03*
%TO.N,/LED_COL5*%
X158000000Y-101600000D03*
%TO.N,/TRI_LED_B*%
X143500000Y-108600000D03*
X148500000Y-83200000D03*
%TO.N,Net-(J3-Pin_1)*%
X147100000Y-87300000D03*
%TO.N,/SDA*%
X155100000Y-122700000D03*
X155900000Y-114400000D03*
%TD*%
D19*
%TO.N,/LED_COL4*%
X141824500Y-97000000D02*
X143500000Y-97000000D01*
X141700000Y-96875500D02*
X141824500Y-97000000D01*
%TO.N,Net-(J1-SHIELD)*%
X125100000Y-104610000D02*
X120600000Y-104610000D01*
X120600000Y-104610000D02*
X120600000Y-95390000D01*
X125100000Y-95390000D02*
X120600000Y-95390000D01*
%TO.N,Net-(D2-K)*%
X161500000Y-92000000D02*
X161500000Y-90000000D01*
%TO.N,/LED_ROW1*%
X144525000Y-88975000D02*
X143500000Y-90000000D01*
X149200000Y-89800000D02*
X149000000Y-90000000D01*
X147975000Y-88975000D02*
X144525000Y-88975000D01*
X140588173Y-88975000D02*
X139025000Y-88975000D01*
X149000000Y-90000000D02*
X147975000Y-88975000D01*
X150025000Y-88975000D02*
X149000000Y-90000000D01*
X155525000Y-88975000D02*
X154500000Y-90000000D01*
X158475000Y-88975000D02*
X155525000Y-88975000D01*
X154500000Y-90000000D02*
X153475000Y-88975000D01*
X139025000Y-88975000D02*
X138000000Y-90000000D01*
X143500000Y-90000000D02*
X141613173Y-90000000D01*
X141613173Y-90000000D02*
X140588173Y-88975000D01*
X153475000Y-88975000D02*
X150025000Y-88975000D01*
X159500000Y-90000000D02*
X158475000Y-88975000D01*
X149200000Y-87200000D02*
X149200000Y-89800000D01*
%TO.N,Net-(D3-K)*%
X156500000Y-90000000D02*
X156500000Y-92000000D01*
%TO.N,Net-(D4-K)*%
X151000000Y-90000000D02*
X151000000Y-92000000D01*
%TO.N,Net-(D5-K)*%
X145500000Y-90000000D02*
X145500000Y-92000000D01*
%TO.N,Net-(D6-K)*%
X140000000Y-90000000D02*
X140000000Y-92000000D01*
%TO.N,Net-(D7-K)*%
X161500000Y-95000000D02*
X161500000Y-97000000D01*
%TO.N,/LED_ROW2*%
X154500000Y-95000000D02*
X154886827Y-95000000D01*
X139025000Y-93975000D02*
X142475000Y-93975000D01*
X150000000Y-93563173D02*
X150411827Y-93975000D01*
X149000000Y-95000000D02*
X149386827Y-95000000D01*
X149386827Y-95000000D02*
X150411827Y-93975000D01*
X142475000Y-93975000D02*
X143500000Y-95000000D01*
X138000000Y-95000000D02*
X139025000Y-93975000D01*
X144525000Y-93975000D02*
X147975000Y-93975000D01*
X154886827Y-95000000D02*
X155911827Y-93975000D01*
X158475000Y-93975000D02*
X159500000Y-95000000D01*
X155911827Y-93975000D02*
X158475000Y-93975000D01*
X143500000Y-95000000D02*
X144525000Y-93975000D01*
X150000000Y-93200000D02*
X150000000Y-93563173D01*
X150411827Y-93975000D02*
X153475000Y-93975000D01*
X153475000Y-93975000D02*
X154500000Y-95000000D01*
X147975000Y-93975000D02*
X149000000Y-95000000D01*
%TO.N,Net-(D8-K)*%
X156500000Y-95000000D02*
X156500000Y-97000000D01*
%TO.N,Net-(D9-K)*%
X151000000Y-95000000D02*
X151000000Y-97000000D01*
%TO.N,Net-(D10-K)*%
X145500000Y-95000000D02*
X145500000Y-97000000D01*
%TO.N,Net-(D11-K)*%
X140000000Y-96900000D02*
X140000000Y-95000000D01*
%TO.N,Net-(D12-K)*%
X161500000Y-100000000D02*
X161500000Y-102000000D01*
%TO.N,/LED_ROW3*%
X155525000Y-98975000D02*
X158475000Y-98975000D01*
X148975000Y-100000000D02*
X148975000Y-98525000D01*
X139025000Y-98975000D02*
X138000000Y-100000000D01*
X146800805Y-98900000D02*
X146775805Y-98925000D01*
X154500000Y-100000000D02*
X155525000Y-98975000D01*
X148600000Y-98900000D02*
X146800805Y-98900000D01*
X149475000Y-98975000D02*
X153475000Y-98975000D01*
X142475000Y-98975000D02*
X139025000Y-98975000D01*
X146175195Y-98925000D02*
X146150195Y-98900000D01*
X148975000Y-98525000D02*
X149000000Y-98500000D01*
X143500000Y-100000000D02*
X142475000Y-98975000D01*
X153475000Y-98975000D02*
X154500000Y-100000000D01*
X146775805Y-98925000D02*
X146175195Y-98925000D01*
X149000000Y-98500000D02*
X149475000Y-98975000D01*
X149000000Y-98500000D02*
X148600000Y-98900000D01*
X144600000Y-98900000D02*
X143500000Y-100000000D01*
X146150195Y-98900000D02*
X144600000Y-98900000D01*
X158475000Y-98975000D02*
X159500000Y-100000000D01*
%TO.N,Net-(D13-K)*%
X156500000Y-100000000D02*
X156500000Y-102000000D01*
%TO.N,Net-(D14-K)*%
X151000000Y-100000000D02*
X151000000Y-102000000D01*
%TO.N,Net-(D15-K)*%
X145500000Y-100000000D02*
X145500000Y-102000000D01*
%TO.N,Net-(D16-K)*%
X140000000Y-100000000D02*
X140000000Y-102000000D01*
%TO.N,Net-(D17-K)*%
X161500000Y-105000000D02*
X161500000Y-107000000D01*
%TO.N,/LED_ROW4*%
X149000000Y-105000000D02*
X150025000Y-103975000D01*
X153475000Y-103975000D02*
X154500000Y-105000000D01*
X155525000Y-103975000D02*
X158475000Y-103975000D01*
X158475000Y-103975000D02*
X159500000Y-105000000D01*
X147975000Y-103975000D02*
X149000000Y-105000000D01*
X150025000Y-103975000D02*
X153475000Y-103975000D01*
X144525000Y-103975000D02*
X147975000Y-103975000D01*
X154500000Y-105000000D02*
X155525000Y-103975000D01*
X139025000Y-103975000D02*
X142475000Y-103975000D01*
X138000000Y-105000000D02*
X139025000Y-103975000D01*
X142475000Y-103975000D02*
X143500000Y-105000000D01*
X143500000Y-105000000D02*
X144525000Y-103975000D01*
%TO.N,Net-(D18-K)*%
X156500000Y-105000000D02*
X156500000Y-107000000D01*
%TO.N,Net-(D19-K)*%
X151000000Y-105000000D02*
X151000000Y-107000000D01*
%TO.N,Net-(D20-K)*%
X145500000Y-105000000D02*
X145500000Y-107000000D01*
%TO.N,Net-(D21-K)*%
X140000000Y-105000000D02*
X140000000Y-107000000D01*
%TO.N,Net-(D22-K)*%
X161500000Y-110500000D02*
X161500000Y-112500000D01*
%TO.N,/LED_ROW5*%
X154500000Y-110500000D02*
X153475000Y-109475000D01*
X147975000Y-109475000D02*
X144525000Y-109475000D01*
X155525000Y-109475000D02*
X154500000Y-110500000D01*
X143500000Y-110500000D02*
X142475000Y-109475000D01*
X144525000Y-109475000D02*
X143500000Y-110500000D01*
X158475000Y-109475000D02*
X155525000Y-109475000D01*
X159500000Y-110500000D02*
X158475000Y-109475000D01*
X142475000Y-109475000D02*
X139025000Y-109475000D01*
X139025000Y-109475000D02*
X138000000Y-110500000D01*
X149000000Y-110500000D02*
X147975000Y-109475000D01*
X153475000Y-109475000D02*
X150025000Y-109475000D01*
X150025000Y-109475000D02*
X149000000Y-110500000D01*
%TO.N,Net-(D23-K)*%
X156500000Y-112500000D02*
X156500000Y-110500000D01*
%TO.N,Net-(D24-K)*%
X151000000Y-110500000D02*
X151000000Y-112500000D01*
%TO.N,Net-(D25-K)*%
X145500000Y-112500000D02*
X145500000Y-110500000D01*
%TO.N,Net-(D26-K)*%
X140000000Y-110500000D02*
X140000000Y-112500000D01*
%TO.N,/LED_COL1*%
X162425000Y-97688173D02*
X162088173Y-98025000D01*
X159500000Y-112500000D02*
X160525000Y-113525000D01*
X162425000Y-102688173D02*
X162425000Y-97688173D01*
X160525000Y-113525000D02*
X162275000Y-113525000D01*
X162425000Y-113375000D02*
X162425000Y-107688173D01*
X159886827Y-102000000D02*
X160911827Y-103025000D01*
X160525000Y-108025000D02*
X162088173Y-108025000D01*
X162088173Y-98025000D02*
X160525000Y-98025000D01*
X162275000Y-113525000D02*
X162425000Y-113375000D01*
X159500000Y-92000000D02*
X160525000Y-93025000D01*
X160525000Y-98025000D02*
X159500000Y-97000000D01*
X162425000Y-94225000D02*
X162425000Y-97688173D01*
X160911827Y-103025000D02*
X162088173Y-103025000D01*
X162425000Y-107688173D02*
X162425000Y-102688173D01*
X162088173Y-108025000D02*
X162425000Y-107688173D01*
X161225000Y-93025000D02*
X162425000Y-94225000D01*
X159500000Y-102000000D02*
X159886827Y-102000000D01*
X159500000Y-107000000D02*
X160525000Y-108025000D01*
X162088173Y-103025000D02*
X162425000Y-102688173D01*
X160525000Y-93025000D02*
X161225000Y-93025000D01*
%TO.N,/LED_COL2*%
X152600000Y-97700000D02*
X153300000Y-97700000D01*
X152800000Y-107300000D02*
X154200000Y-107300000D01*
X152600000Y-101300000D02*
X153300000Y-102000000D01*
X152300000Y-91900000D02*
X152400000Y-92000000D01*
X152800000Y-112700000D02*
X154300000Y-112700000D01*
X153300000Y-97700000D02*
X154000000Y-97000000D01*
X152400000Y-92000000D02*
X154500000Y-92000000D01*
X154300000Y-112700000D02*
X154500000Y-112500000D01*
X154000000Y-97000000D02*
X154500000Y-97000000D01*
X153300000Y-102000000D02*
X154500000Y-102000000D01*
X154200000Y-107300000D02*
X154500000Y-107000000D01*
%TO.N,/LED_COL3*%
X147400000Y-107000000D02*
X147200000Y-107200000D01*
X149000000Y-101800000D02*
X147100000Y-99900000D01*
X147300000Y-97000000D02*
X147200000Y-96900000D01*
X147800000Y-112500000D02*
X149000000Y-112500000D01*
X147300000Y-90700000D02*
X148400000Y-91800000D01*
X149000000Y-107000000D02*
X147400000Y-107000000D01*
X148900000Y-91900000D02*
X149000000Y-92000000D01*
X149000000Y-97000000D02*
X147300000Y-97000000D01*
X148900000Y-91800000D02*
X148900000Y-91900000D01*
X149000000Y-102000000D02*
X149000000Y-101800000D01*
X148400000Y-91800000D02*
X148900000Y-91800000D01*
%TO.N,/LED_COL4*%
X141900000Y-112500000D02*
X141800000Y-112600000D01*
X143500000Y-112500000D02*
X141900000Y-112500000D01*
X143500000Y-107000000D02*
X141700000Y-107000000D01*
X141800000Y-92000000D02*
X143500000Y-92000000D01*
X154800000Y-108300000D02*
X144800000Y-108300000D01*
X141712299Y-101112299D02*
X142600000Y-102000000D01*
X142600000Y-102000000D02*
X143500000Y-102000000D01*
X144800000Y-108300000D02*
X143500000Y-107000000D01*
%TO.N,/LED_COL5*%
X138000000Y-107000000D02*
X137075000Y-107925000D01*
X137075000Y-95975000D02*
X138000000Y-96900000D01*
X158000000Y-101600000D02*
X158000000Y-103000000D01*
X137075000Y-102925000D02*
X137075000Y-106075000D01*
X138000000Y-96900000D02*
X137075000Y-97825000D01*
X158000000Y-103000000D02*
X157700000Y-103300000D01*
X139300000Y-103300000D02*
X138000000Y-102000000D01*
X138000000Y-102000000D02*
X137075000Y-102925000D01*
X137075000Y-111575000D02*
X138000000Y-112500000D01*
X137075000Y-106075000D02*
X138000000Y-107000000D01*
X157700000Y-103300000D02*
X139300000Y-103300000D01*
X137075000Y-107925000D02*
X137075000Y-111575000D01*
X137075000Y-92925000D02*
X137075000Y-95975000D01*
X137075000Y-97825000D02*
X137075000Y-101075000D01*
X138000000Y-92000000D02*
X137075000Y-92925000D01*
X137075000Y-101075000D02*
X138000000Y-102000000D01*
%TO.N,Net-(J3-Pin_1)*%
X147100000Y-73900000D02*
X152500000Y-68500000D01*
X147100000Y-87300000D02*
X147100000Y-73900000D01*
%TO.N,/SDA*%
X155900000Y-114400000D02*
X155900000Y-121900000D01*
X155900000Y-121900000D02*
X155100000Y-122700000D01*
%TD*%
M02*
